<svg id="Layer_1" data-name="Layer 1" xmlns="http://www.w3.org/2000/svg" viewBox="0 0 1286 940.5"><defs><style>.cls-1{fill:#f9e9ff;}.cls-2{fill:#23334f;}.cls-3{fill:#1e2f4c;}.cls-4{fill:#132335;}.cls-5{fill:#5b6b7d;}.cls-6{fill:#fbfbfa;}.cls-7{fill:#fbf5eb;}.cls-8{fill:#e2e2e2;}.cls-9{fill:#fca27f;}.cls-10{fill:#f9de91;}.cls-11{fill:#f2a383;}.cls-12{fill:#fcf627;}.cls-13{fill:#3e4146;}.cls-14{fill:#4b2c40;}.cls-15{fill:#f6f7f8;}.cls-16{fill:#4d84a7;}.cls-17{fill:#ca8171;}.cls-18{fill:#f1e6d6;}.cls-19{fill:#efe5d6;}.cls-20{fill:#fefefe;}.cls-21{fill:#5d95b8;}.cls-22{fill:#d1b8d0;}.cls-23{fill:#d3d3d3;}.cls-24{fill:#e1e5e2;}.cls-25{fill:#ef485c;}.cls-26{fill:#d8e2e8;}.cls-27{fill:#d2c7bc;}.cls-28{fill:#7e949e;}.cls-29{fill:#dddad7;}.cls-30{fill:#d8d8d8;}.cls-31{fill:#dcd3dd;}.cls-32{fill:#efeff0;}.cls-33{fill:#fbf6eb;}.cls-34{fill:#fff91a;}.cls-35{fill:#6594b3;}.cls-36{fill:#cec6be;}.cls-37{fill:#fcdfa7;}.cls-38{fill:#ffdfb0;}.cls-39{fill:#ea0a30;}.cls-40{fill:#17e539;}.cls-41{fill:#777;}.cls-42{fill:#5a5b5b;}.cls-43{fill:#fdf6eb;}.cls-44{fill:#f0e6d5;}.cls-45{fill:#9e9294;}.cls-46{fill:#1b85ef;}.cls-47{fill:red;}.cls-48{fill:#ff9408;}</style></defs><path class="cls-1" d="M151.64,533c2.61,3,2.69,6.63,2.69,10.45q-.12,191.84-.07,383.66v5.78c-2.6-.21-5-.57-7.5-.57-28.29,0-56.59.25-84.88-.14-14.24-.2-28.72-10.7-28-27.4.22-5-2.15-10.22-1.77-15.22.65-8.81,2.52-17.53,3.84-26.29a25.48,25.48,0,0,0,.18-3.15c.23-10.41,1.26-20.55,5.85-30.23,1.44-3,.15-7.29.59-10.93.21-1.74,1.53-3.35,2.35-5a23.22,23.22,0,0,0,1.71-3.56c1.36-4.6,2.65-9.21,3.84-13.85,1.61-6.3,3.05-12.65,4.64-19,1.72-6.78,3.65-13.52,5.29-20.33,1.87-7.81,3.48-15.68,5.28-23.5.33-1.46,1.07-2.83,1.47-4.27,1-3.45,2-6.89,2.69-10.4,2.05-10.55,4.71-21.07,5.66-31.73.78-8.7,3.31-17.85-1.86-26.37-1-1.63-.59-4.09-.86-6.16q-1.44-11.09-2.91-22.16c-.14-1,0-2.64-.53-3-5.81-3.39-3.44-9.93-5.82-14.59-.56-1.11-1.33-2.11-2-3.19-.78-1.33-2-2.63-2.14-4-.33-3,.14-6-.21-8.94-.17-1.38-1.64-2.56-2.22-4-1.4-3.35-2.76-6.73-3.9-10.17-1.76-5.33-3.45-10.69-4.94-16.1-1.36-4.93-2.67-9.9-3.54-14.94-1.29-7.48-1-15.45-3.45-22.47-5.87-16.64-2.28-33.56-2.6-50.29-.23-11.74,1.77-23.69,4.18-35.25,1.54-7.35,5.65-14.16,8.6-21.22,1.12-2.68,2-5.47,3.37-8,2.79-5.31,5.54-10.67,8.77-15.72,9.09-14.26,21-25.85,34.05-36.55,7.72-6.35,14.55-13.77,22-20.46,1.53-1.37,4-1.64,5.41-3.07,4.52-3.75,9.16-7.38,13.52-11.31,2-1.82,3.51-4.22,5.24-6.36.51-.63.89-1.57,1.55-1.83,13.32-5.27,21.06-16.42,27-28.22,2.33-4.6,7.24-9.56,5.2-16.05-.09-.3,0-.88.2-1,7.3-4.27,4.25-12.09,5.7-18.14,2-8.15,1.45-16.86,2.55-25.26,1-7.81,2.76-15.52,4.21-23.28.09-.49.29-1.3.58-1.37,5.1-1.22,3.33-5.3,3.53-8.48.25-3.91-.7-7.51,3.83-10.63,3.56-2.45,5.11-7.71,7.77-11.57,4.37-6.34,8.63-12.8,13.57-18.68,1.54-1.84,5.12-2,6.48-2.47,2.7-3.5,4.45-6.6,7-8.88,8.62-7.87,17.93-15.2,29.17-18.53,7.58-2.24,14.55-6.73,23.22-6.05,6.39.51,13-.8,19.42-2.09,13.07-2.63,26-.06,39,.47,10.76.43,21.49,2.32,32.16,4.06,10.05,1.65,20,4.07,30,5.88,6.07,1.09,12.23,1.74,18.36,2.45,6.83.8,13.68,1.45,20.52,2.16.35,0,.89,0,1,.16,5.14,7.84,13,2.64,19.43,3.93,2.87.57,6,0,8.94.14s6.61-1.48,7.56,3.33c.08.41,1.5.71,2.33.79,1.39.13,2.81-.07,4.21.07q17.29,1.71,34.58,3.51c1.2.12,2.39.61,3.59.65,12.43.4,24.86.68,37.29,1.12,5.76.2,11.55,1.25,17.26.91,19-1.13,38-2.48,56.91-4.23,9-.83,18.36-1.66,26.86-4.53,6.8-2.28,13.9-1.64,20.82-5.23,8.47-4.39,19-5,28.68-6.89,5.39-1.06,10.9-1.47,16.36-2.22,1-.13,2.75-.25,2.87-.71,1.33-5.17,5.49-2.91,8.58-3.5,5.85-1.11,11.68-2.35,17.51-3.54,4.23-.87,8.43-2,12.69-2.56,7.17-1,14.46-1.11,21.55-2.4,17.5-3.19,35.13-2.19,52.68-1.74,6.84.18,14.89,1.87,20.08,5.87,6.46,5,14.35,4.75,20.61,8.86,5.49,3.6,10.27,8.85,16.22,11,5,1.81,7,6.48,11.23,8.25,4.42,1.84,6.18,4.48,4.89,10,9.81-3,12.23,6,15.48,10.46,4.22,5.78,9.44,10.79,13.24,16.75,4.54,7.1,8,14.91,11.9,22.4,2,3.76,4.3,7.38,6,11.26,5,11.31,9.74,22.77,14.84,34.05,1.11,2.45,3.35,4.39,5.07,6.55.31.4.83.71,1,1.15,1.52,5.15,2.29,10.66,4.64,15.39,3,6,7.25,11.41,11,17.06.36.54,1.17.93,1.27,1.48,2.48,13.61,14.73,19.47,23,28.37,4.52,4.87,11.25,7.67,16.92,11.51q17.94,12.15,35.8,24.42c.29.19.48.68.75.71,10,1,15.14,10.06,23.51,14.16,9.83,4.82,18.24,12.76,26.78,19.92a138.5,138.5,0,0,1,17.75,17.59c3.39,4.09,5,9.63,7.67,14.35,1.07,1.89,3.44,3.1,4.37,5,4.16,8.65,8.45,17.29,11.78,26.27,1.38,3.73.42,8.32.61,12.52.09,1.9-.33,4.42.7,5.57,4.29,4.78,3.49,10.4,3.49,15.95,0,9,.47,17.95-.14,26.87-.5,7.31-2.59,14.5-3.42,21.81-.66,5.71-.43,11.53-.67,17.29-.1,2.44,1,5.38-2.94,6.32-.7.17-1.15,2.66-1.2,4.09-.21,5.52-.59,10.71-2.62,16.21-3.09,8.35-4,17.5-5.87,26.3-.18.85-.07,2.33-.46,2.47-6,2.13-3,7.25-3.77,11.09-1.72,8.45-3.54,16.88-5.26,25.32-.45,2.21-.66,4.47-1.06,6.69q-1.69,9.35-3.46,18.67c-.13.68-.58,1.32-.64,2-.76,8.59-1.86,17.18-2.13,25.79-.37,11.49-.36,23,0,34.5.26,8.61.67,17.32,2.25,25.75,1.77,9.47,5,18.66,7.44,28,1.16,4.45,1.87,9,2.9,13.51a40,40,0,0,0,1.59,4.22,70.33,70.33,0,0,1,2.54,7.36c2.09,8.79,4.23,17.57,5.94,26.43,1.19,6.22,1.69,12.58,2.58,18.86.26,1.84.23,4.2,1.34,5.36,5.12,5.34,2.45,11.64,2.46,17.51,0,3.88-1.53,7.76-1.64,11.67-.32,11.45-3.1,21.05-13.2,28.51-4.1,3-8.43,3.86-12.46,6.05-14.83,8.09-30.79,2.86-46.18,4.06-8.91.69-17.92,0-26.88.2-3.74.09-5.18-1.21-4.71-4.84a19.21,19.21,0,0,0,0-2.63q0-191.57.09-383.13c0-3,1.3-5.9,2-8.85l2,.15c7.14.61,14.36,2.46,21.24-1.28l0-26.37a28.82,28.82,0,0,0-5.28-1q-52.15-.1-104.3-.08a19.65,19.65,0,0,0,7-14.94c.17-4.15.62-8.29.95-12.43,4-1.9,4.08-5.5,3.26-9s-4.06-3.77-7.14-3.68c1-5.74,5.84-6.8,10.93-8.36-4.41-7,1.36-8.47,6.38-10.22-1.81-2.75-7.4-3.47-3.07-7.19,3.35-2.88,3.1-5.21.11-8.22-1.77-1.79-2.49-4,.72-6s1.65-3.78-1.29-4.22c-3.81-.57-4-2.06-1.8-4.8a21,21,0,0,0,1.78-3.69c-7.49-.05-9.24-4.22-7.59-10.18-7.5-.52-7.5-.52-10.76-6.1-2.38.43-5.14,1.81-6.85,1s-2.56-3.84-3.28-5.05c-4.07,1.75-7.24,4.26-10.23,4.05-2.77-.19-5.34-3.28-8.28-5.29-.17,1.24-.39,2.55-.52,3.87-.14,1.51-.21,3-.34,4.93-3.08-.75-6.46-2.66-8-1.67-1.84,1.16-2.12,4.81-3.18,7.68L936.49,406v9.26h-6.17c.4,4,.76,7.6,1.13,11.22-3.31.7-6.64,1.3-9.89,2.18a2.68,2.68,0,0,0-1.52,2.14,2.75,2.75,0,0,0,2,1.73c2.41.21,4.85.06,7.28,0,5.58,5.1-1.58,5.3-3.67,8.95l8.25,2.42c-.86,2.2-1.77,4.5-2.8,7.1l5.76,1.33c-.41,2-.79,3.73-1.13,5.5-.2,1.06-.71,2.29-.36,3.15a2.84,2.84,0,0,0,2.68.74c3.38-1.65,5.22.39,7.09,2.58-1.67,1.57-4.16,2.86-4.84,4.78-1.17,3.32.12,6.39,3.74,7.91l1.44,15.77.43,1.3q1.7,3.51,3.41,7l1.66,1.57.48,1.73-4.21,0L825,504.25c0-.68-.1-1.36-.14-2s.12-1.4.13-2.11c.15-10.41-.16-10.72-10.43-10.72l-82.73-.08-4-18.79v-4.85h5q50.28,0,100.56,0c11.77,0,18.65-6.28,19.84-17.86q5-48.41,10.1-96.79c3.22-30.7,6.52-61.38,9.68-92.08,1-9.72-5.09-17.55-14.43-19.05a29.8,29.8,0,0,0-5-.86q-42.8-.09-85.59-.06l-.08-10.77v-1.54c.91-6.58,2-13.13,2.6-19.73.12-1.38-1.62-2.91-2.51-4.37l-4.35-2.66c-1.91-.14-3.82-.4-5.73-.4q-122.61,0-245.21,0c-1.74,0-3.48.22-5.22.34-6.13,1.65-8.34,5.52-8.37,14.7q-.72,4.74-1.42,9.47l-.73,2.29c0,.64,0,1.28,0,1.91-.75,8.67-1.48,17.35-2.25,26-.69,7.8-1.32,15.61-2.16,23.39-1.26,11.76-2.79,23.48-4,35.24-1.22,11.95-2,23.94-3.32,35.88-2.14,19.7-4.65,39.37-6.75,59.07-.35,3.28.62,7.39,4.56,7.77,6.8.67,13.7.3,20.56.37-.83,9.64-1.6,19.28-2.54,28.91-.15,1.47-1.05,2.87-1.61,4.31a38.71,38.71,0,0,0-4.8-1.62c-5.57-1.12-11.17-2.1-16.75-3.13a23,23,0,0,0-2.54-4.25c-21.15-22.48-42.27-45-63.58-67.32-22.14-23.21-46.41-43.32-78.15-52.23,1-2.74,2.05-5.48,3.08-8.21,2.71,1.55,5.3,3.43,8.18,4.59,7.8,3.15,17.42-.56,20.15-7.14a152.3,152.3,0,0,1,7.6-15.83c3.27-5.89,2.94-7.48-3.3-10.18a24.85,24.85,0,0,0,2-3.05c7.52-16.2,7.41-33.28,5.74-50.51-.15-1.49-1.13-2.9-1.73-4.34a42.68,42.68,0,0,0,15.38-25c-5.65-1.66-10.92-2.82-15.89-4.76-7.06-2.74-13.78-2.54-21-.49-4.83,1.36-10.24,1.12-15.36.89-9.05-.39-18.13-2.24-27.11-1.82-18.32.86-27.88,9.37-31.18,26.93-3.71,19.72-1.87,38.66,8.62,56.42,2.67,4.5,3.42,10.13,5.05,15.25l-6.77,17.16c-9.09.27-15.77,5.36-21.95,11.2A93.27,93.27,0,0,0,243,354.1c-6.65,16.13-12.09,32.76-18.42,50.22H153c2.45,5.15,4.19,9.17,6.25,13,3.13,5.83,7.18,11.27,9.58,17.36,4.49,11.39,8.07,23.14,12,34.74l.9,3.27q4.11,15.69,8.21,31.39-30.51.09-61,.21a38.39,38.39,0,0,0-5.47.8q0,13.42.07,26.86l1.28,1,2,0Z"/><path class="cls-1" d="M668.9,935.69c-1.44-1.14-2.9-3.26-4.33-3.24-6,.08-12,1-18.06,1.19-2.78.08-5.6-1.3-8.41-1.3q-75.78-.14-151.56,0c-3.59,0-5.47-1-6.26-4.33-.18-5-1.52-9-7-10.88-1.16-.38-1.74-2.85-2.34-4.45-1.79-4.78-3.46-9.6-5.18-14.41L461,892.19l5.64-15.11,8.08-12.26c6,9,11.7,18.25,18.24,26.85,6.13,8.07,14.59,11.86,25,9.92,7.85-1.4,16.1-1.71,23.47-4.42,24.46-9,43.44-25.74,58.59-46.32,27.9-37.92,40.88-82.08,50.86-127.3l5.5-30.49c.32-3.58.68-7.16,1-10.75.87-11.27,2.56-22.57,2.24-33.81-.18-6.5-3.62-12.91-5.59-19.36-3.91-8.33-10.1-14.46-18-19.08-16.12-9.43-33.65-15.21-51.43-20.4-.12-1.75-.19-3.5-.37-5.24-1.56-15.51-13.73-27.62-29.07-27.07-23.64.85-47.24,2.83-70.85,4.34l-5.24.67-5.4.16c-3.89-3.55-7.76-7.11-11.69-10.62a30.74,30.74,0,0,0-3.16-2.21l.95-.4c-.06.16-.11.45-.19.46a5,5,0,0,1-.94,0c2.41-.33,4.81-.71,7.22-1,11.44-1.31,23-2.18,34.3-4,10.32-1.68,20.46-4.39,30.68-6.65,1.41,0,2.81.1,4.21.1H830.68c7.9,0,15.8.12,23.7.19.7,3,2,5.92,2,8.89.13,33.5.07,67,.06,100.49-.67-.67-1.83-1.28-1.93-2-.86-6.55-1.38-13.15-2.3-19.68-.72-5.06-1.88-10-2.84-15.06l-1.82.3a268.83,268.83,0,0,0-14.26,72.28c0,.34,0,.68,0,1-5.08-2.81-10.38-5.3-15.19-8.51-8.68-5.79-18.6-7.53-28.26-10.16,3.93,4.66,7.92,9,12.08,13.1,18.19,18.09,33.71,38,42.58,62.42,1.7,4.69,3.71,9,10.08,7.74.58-.12,1.29.45,2,.7v2.26c-11.21,0-22.43-.13-33.63,0-1.52,0-4,1.13-4.36,2.29-2,5.87-4.28,11.82-5.07,17.92-2,15.54-3.23,31.13-1.35,46.87,1.16,9.7.88,10,10.38,9.77.7,0,1.41,0,2.11,0l31.92,1v2.24c-12.27,0-24.54.06-36.8-.14-3.59-.06-5,1.37-4.28,4.62,1.38,6.11,2.39,12.43,4.74,18.17,4.46,10.89,8.9,21.95,15,32s14.18,19.06,21.38,28.52v11.71c-6.58-1.21-11.81,1-15.82,6.26-3.9-.35-7.8-1-11.7-1q-75.8-.11-151.58-.05c-1.22,0-2.7-.41-3.62.13-1.2.7-2,2.17-2.89,3.31Zm117.1-268c.74,14.49,3.76,27.76,10.41,39.7a200.48,200.48,0,0,0,18.91,28.77c6,7.41,12.94,14.91,24.64,12.81,3.81-.68,4.64-1.75,3-5-5-9.91-9.14-20.46-15.4-29.53-8.29-12-18.08-23-27.65-34.09C795.83,675.72,790.67,671.94,786,667.74Z"/><path class="cls-2" d="M854.38,538.34c-7.9-.07-15.8-.19-23.7-.19H535c-1.4,0-2.8-.07-4.21-.1l24.11-7.33,269.92,0c1,0,2.09-.16,3.14-.25,3.5.1,7,.28,10.52.28q109.4,0,218.78,0c3.33,0,6.67-.14,10-.22l2.27,0,21.89-.06c.4.42.8.85,1.21,1.27-6.88,3.74-14.1,1.89-21.24,1.28l-2-.15c-3.13-1.07-3.82.84-4.06,3.31l-.6-1.44-.67.39,1.26,1.9v7.29c0,.38,0,.76,0,1.13.11,1.57.31,3.14.31,4.7q0,189,0,378c0,1.39-.2,2.77-.31,4.15l-.05,2.05c.68.72,1.36,1.43,2,2.15l4.22,0c1.74-.09,3.48-.26,5.23-.26q66.73,0,133.48,0c2.62,0,5.23.18,7.84.28-1.88.7-3.76,2-5.64,2-36.82.12-73.65.07-110.47.1-10.34,0-20.69.15-31,.23h.1l-5.79.63h-1.18a45.18,45.18,0,0,0-6.07-.84q-97.62-.06-195.25,0l2.2-2.32a1.12,1.12,0,0,1,1,.23,16.19,16.19,0,0,0,3.86,1q22.53.11,45.06,0a15.68,15.68,0,0,0,3.84-1l17.91,0h1c14.34-.09,28.68-.25,43-.24,25,0,50,.14,75.06.22l1,0,2.45-2.1,1.77,1.51v-4.1q0-192.72,0-385.45c0-2.1.26-4.22,0-6.29-.06-.65-1.31-1.17-2-1.75-1.74-.08-3.49-.23-5.24-.23l-188.93,0-7.41,0Z"/><path class="cls-2" d="M263.61,924.06c.83-1.42,1.65-2.85,2.47-4.27l2.07-2.28,1.13-1.27,2,1.08,5-.32c7.74,2.51,9.64,6.35,7.72,16.76l16.16,2.2c-5-10.1-3.06-15.39,6-19.51l5.23-1.07,9.43,12.73L316,934.89l.92,1.6,10.23-3.17,2.29,2.27c2.26,1.83,4.37,4.92,7.33.87,2-.71,5.53,1.09,5.52-3.18.59-1.08,1.69-2.16,1.7-3.24q.21-16.23,0-32.44c0-1.08-1.14-2.15-1.75-3.23-.13-.69-.25-1.39-.38-2.08l-.09-2.5c2.08-8.72-1.94-15.76-6.27-22.7l-.07-7.85a.91.91,0,0,1,.23-.72c4.26-2.61,10.1-3.57,10.5-10.16a36,36,0,0,1,4.55-3.5c4.82-2.62,9.75-5,14.63-7.55v53.33l8.6-2.67,1.56,0,.72,1.55,2.19,1.31-.14,0c.23-.61.47-1.22.71-1.83a36.45,36.45,0,0,0,.89-5.52c.14-11.59.17-23.18.23-34.77,6.74,12.5,10.41,25.76,9.42,40.5,6.41,0,12.17.17,17.89-.15,1.13-.07,3.17-2.16,3.07-3.13-1-10-1.66-20.2-3.88-30-3.59-15.9-6.51-31.49,2.21-46.69,1.13-.34,2.51-.39,3.36-1.08,8.45-6.92,18.33-8.65,28.85-8.19l.06,2.51-.95,1.14-2.32.1c-3.88-.14-8-1.24-11.61-.25-15.94,4.37-23.69,16-21.27,32.47,2.59,17.76,6.06,35.4,9.21,53.41h31.4V870.1l1.55.07c-.21,1.89-.41,3.77-.62,5.66,0,1.33,0,2.65,0,4,.07,2.23.3,4.46.16,6.68-.17,2.86,1.4,3.52,3.76,3.51.36.89.71,1.77,1.06,2.66l-4.06-.44-2.2.06H426c9.53,6.22,12.49,14.39,12.08,21.94,3.74,4.11,7.43,6.57,8.57,9.89s-.33,7.45-.65,11.08h14.54c-.94-3.22-1.8-6.19-2.66-9.16L459,924c.33-.73.65-1.47,1-2.2l2-2.29a1.43,1.43,0,0,0,0-1l6.44-2.16a22.5,22.5,0,0,0-4.79-17.51l2.19-.49c1.72,4.81,3.39,9.63,5.18,14.41.6,1.6,1.18,4.07,2.34,4.45,5.44,1.83,6.78,5.89,7,10.88q-1.36,3.12-2.71,6.24l-.68,1.67,1.31.37q82.17-.08,164.34-.13a9.81,9.81,0,0,1,2,.43l.18,2.57a.9.9,0,0,0,0,.7l-2.35.15c-1.53-.49-3-1.39-4.58-1.39q-78.16-.12-156.32,0c-1.51,0-3,1-4.54,1.46l-12.64.17h-1.17l-19-.17-15.78-.59a1.43,1.43,0,0,0-.11.79L422,940l-4.11,0H415.7c-1.35-.49-2.7-1.39-4.05-1.4q-27.52-.14-55,0c-1.36,0-2.71.89-4.07,1.37l-10.53.26h-1.16l-14.66,0-1.17,0-11.48,0h-1.17l-30.57-.21-11.48-.57-2.21.78-3.18-.26-2.05-3.56,2.36-.51C264.68,931.92,264.15,928,263.61,924.06ZM411.53,897.3l-2-4.21c-4.3-.31-8.68-.23-12.89-1-8.38-1.52-12,4.84-16.8,9.43l-2.16-9.38-1.57.05v11.56l-2,0c-.25-3.77-.5-7.54-.76-11.36h-7.74l-.42,8.52c-1.69-.86-3.4-1.66-5.05-2.58-2.92-1.63-5.81-3.32-8.71-5l-3-.16,0,6.43v34.76l2,2.15,1,0h3.18l69.6,0,1,0-1.15-1.92.11-1.25,2.89-.28c-2.53-9.16-.93-12.3,8.32-17,.85-14.89-8.46-24.74-22.43-23.51-.24,1.26-.5,2.59-.76,3.91Z"/><path class="cls-2" d="M163,542.29c-.07,1.4-.19,2.8-.19,4.2q0,191.07,0,382.14c0,1.23.09,2.45.13,3.68.25,1.14.49,2.29.73,3.43,8.06.15,16.12.15,24.17.54,2.21.11,4.35,1.38,6.53,2.12-2.11.67-4.22,1.93-6.33,1.94q-57.45.17-114.91.07H19.36a10,10,0,0,1-3.14-.06,16.63,16.63,0,0,1-3.19-2,13.82,13.82,0,0,1,3-2.12c.91-.35,2.08,0,3.13,0H156.1V533.14c.1-.78.21-1.55.31-2.33l4.15,0H193.3l3.11-.33c-1-4.77-2-9.15-2.91-13.54l1.43-.09q1.84,8,3.68,15.91l.27,1a.89.89,0,0,1,.25.91l-.66,4.52a22.61,22.61,0,0,0-4.91-1.07c-9.6,0-19.2.07-28.81.14l-1.76.79Z"/><path class="cls-3" d="M865,936.26l-2.2,2.32L856.36,940h-2l.12-1.64.78-2.06,2.79-.93c.51-1.86,1.48-3.72,1.48-5.58q.1-189.93,0-379.86a38.19,38.19,0,0,0-.82-5.57,1.81,1.81,0,0,0-.86-.11c.08-.68.16-1.36.25-2l4-4.25c.28,3.52.62,5.78.62,8q0,191.12.08,382.22c0,2,1,4.07,1.49,6.1C864.59,935,864.8,935.63,865,936.26Z"/><path class="cls-4" d="M856.36,940l6.45-1.43q97.64,0,195.25,0a43.66,43.66,0,0,1,6.07.85.67.67,0,0,0-.12.76l-3.93,0-1.25,0-122.11,0h-1.26Z"/><path class="cls-5" d="M855.31,936.32c-.26.69-.52,1.37-.79,2.06q-26.06,0-52.11-.08-62.11,0-124.24.07c-1.67,0-3.33,1.26-5,1.94l-5.66-1.11c.47-1.17.93-2.34,1.39-3.51l2,0c2.62.1,5.24.3,7.87.3q67.72,0,135.46,0c8.78,0,17.56-.15,26.34-.23l10.53.6c.15.26.3.52.44.78l.92-.79Z"/><path class="cls-4" d="M673.17,940.31c1.67-.68,3.33-1.93,5-1.94q62.12-.15,124.24-.07,26.05,0,52.11.08c0,.55-.07,1.1-.11,1.64-1.74.1-3.49.29-5.23.29Q761.18,940.33,673.17,940.31Z"/><path class="cls-4" d="M477,940.11c1.52-.5,3-1.46,4.54-1.46q78.16-.1,156.32,0c1.53,0,3.05.9,4.58,1.39-1.22.09-2.44.27-3.66.27q-79.58,0-159.16,0C478.7,940.31,477.83,940.18,477,940.11Z"/><path class="cls-4" d="M1065.31,939.46l5.79-.63,0,.34,0-.34c10.34-.08,20.69-.22,31-.23,36.82,0,73.65,0,110.47-.1,1.88,0,3.76-1.32,5.64-2,2.13.31,6-2.27,5.1,3.08l-2,.68H1067.44ZM1221,937.94c0,.12,0,.28.08.33a1.18,1.18,0,0,0,.4.09l-.11-.56Z"/><path class="cls-4" d="M262.87,936.45l2.05,3.56c-15.07.11-30.14.26-45.2.22-1.22,0-2.43-1.33-3.64-2,1.22-.64,2.44-1.83,3.66-1.84C234.11,936.28,248.49,936.39,262.87,936.45Z"/><path class="cls-4" d="M352.53,940c1.36-.48,2.71-1.37,4.07-1.37q27.52-.14,55,0c1.35,0,2.7.91,4.05,1.4Z"/><path class="cls-6" d="M164.75,538.32c9.61-.07,19.21-.18,28.81-.14a22.82,22.82,0,0,1,4.92,1.07c.24,1.3.49,2.59.73,3.89-10.35-5.47-21.53-2-32.3-2.87-.3,0-.7,1.31-1.06,2H163c0-1.06,0-2.12,0-3.18Z"/><path class="cls-5" d="M151.64,533H126.79l-2,0-1.28-1c.47-.5,1-1,1.42-1.48l27.25.32c0,.57,0,1.14-.05,1.72A.94.94,0,0,1,151.64,533Z"/><path class="cls-4" d="M428.39,939.51l15.78.59-12.53.11Z"/><path class="cls-4" d="M270.31,939.49l11.48.57-11.36.17A.64.64,0,0,0,270.31,939.49Z"/><path class="cls-4" d="M417.91,940.06l4.11,0Z"/><path class="cls-2" d="M152.14,532.52c0-.58,0-1.15.05-1.72h3.09c0,.61,0,1.23,0,1.85Z"/><path class="cls-4" d="M1071.59,936.47l-4.22,0Z"/><path class="cls-7" d="M163.67,935.74c-.24-1.14-.48-2.29-.73-3.43C163.19,933.45,163.43,934.6,163.67,935.74Z"/><path class="cls-4" d="M1065.38,537.06l-1.26-1.9.67-.39.6,1.44A.6.6,0,0,1,1065.38,537.06Z"/><path class="cls-5" d="M428.39,939.51l3.25.7-3.36.09A1.43,1.43,0,0,1,428.39,939.51Z"/><path class="cls-5" d="M1065.31,939.46l2.13.79-3.43,0a.67.67,0,0,1,.12-.76Z"/><path class="cls-4" d="M1065.34,934.35l.05-2.05Z"/><path class="cls-5" d="M1221.21,940.24l2-.68Z"/><path class="cls-5" d="M478.2,936.33l-1.31-.37.68-1.67Z"/><path class="cls-4" d="M644.75,939.2l-.18-2.57c.37.68.75,1.35,1.12,2Z"/><path class="cls-5" d="M155.27,532.65c0-.62,0-1.24,0-1.85h1.13c-.1.78-.21,1.55-.31,2.33A.79.79,0,0,1,155.27,532.65Z"/><path class="cls-5" d="M270.31,939.49a.64.64,0,0,1,.12.74l-2.33,0Z"/><path class="cls-4" d="M1065.39,545.48c0-.37,0-.75,0-1.13C1065.39,544.73,1065.39,545.11,1065.39,545.48Z"/><path class="cls-5" d="M644.75,939.2l.94-.55c-.31.42-.63.83-1,1.25A.9.9,0,0,1,644.75,939.2Z"/><path class="cls-5" d="M312.36,940.27h0Z"/><path class="cls-5" d="M325,940.3l1.17,0Z"/><path class="cls-5" d="M340.84,940.29h0Z"/><path class="cls-5" d="M463.14,940.27h0Z"/><path class="cls-5" d="M935.46,940.21h0Z"/><path class="cls-5" d="M1058.83,940.24l1.25,0Z"/><path class="cls-8" d="M503.58,415.92c-6.86-.07-13.76.3-20.56-.37-3.94-.38-4.91-4.49-4.56-7.77,2.1-19.7,4.61-39.37,6.75-59.07,1.31-11.94,2.1-23.93,3.32-35.88,1.21-11.76,2.74-23.48,4-35.24.84-7.78,1.47-15.59,2.16-23.39.77-8.67,1.5-17.35,2.25-26h271q0,5.38.08,10.77c0,.61,0,1.22-.07,1.82-.08,2.15-.17,4.29-.25,6.45a45.32,45.32,0,0,0,6.08.84c25.63.05,51.26,0,76.89.07a53.16,53.16,0,0,1,7.16.93l-83.77.19c-7.49,0-7.68.32-8.24,7.88-.63,8.35-1.51,16.68-2.35,25q-2,19.5-4,39a20,20,0,0,1,3.79,2,17.75,17.75,0,0,1,2.51,3.2c-2.38-.08-5-.83-5.87,2.61s-1.78,6.67-2.68,10L753.15,342l-.94-.93c-3.15,4.44.72,5.07,3.38,6.08l-.31,5.42,0,4.19c-.69.64-2,1.27-2,1.94-.18,4.62-.1,9.26-.11,13.89,0,1.05,0,2.1,0,3.15-.69,1.34-1.87,2.64-2,4-.27,3.6-.06,7.23,0,10.85q1.06,5.07,2.11,10.14l-1.94,1.56a1.45,1.45,0,0,0-.13.71c-2.27,12.77-2.27,12.78-15,12.78H520.83c-2.63,0-5.26.13-7.89.2Zm86.15-28.56c0-.29,0-.71-.11-.85a1.58,1.58,0,0,0-1-.23q-30.42,0-60.85,0a7.82,7.82,0,0,0-2.37.86c-.84,1.92-1.68,3.83-2.66,6.08a24.84,24.84,0,0,0,3,.49q29.91,0,59.83,0c1.07,0,2.13-.76,3.2-1.16l.16-.23-.13-.26ZM711,363.16c-.13.09-.39.23-.38.26a5.38,5.38,0,0,0,.39.7,1.82,1.82,0,0,1,.16.76c1.13,3.3,3.65,6.54.15,10-.47.47,0,1.76-.32,2.54-2.54,6.65-.33,15.11-7.77,19.94-1,.66-3.11,2.79.36,3.68,6.59,0,8.3-1.32,9.42-7.86.81-4.65,1.31-9.34,5.18-10.62-.39-3.58-.89-6.3-.92-9,0-1.89.79-3.76.93-5.67C718.52,363,715.89,361.31,711,363.16ZM684.65,322c0-.33,0-.66,0-1,.36-1.91.73-3.81,1.23-6.41H648.77c1.52-.7,3-2,4.58-2,8.54-.2,17.1,0,25.64-.19,1.54,0,3-1.31,4.57-2l-.06-1.67c2.8-.1,5.61-.4,8.4-.24,4.64.27,5.69-2,4.93-6.47h-7.51l-123.86-.17c-3.1-.62-6.56-2.35-9.2-1.5-2.11.68-3.22,4.48-5.28,7.69l-5.19,1.12,2.81,1.22c2.2.83,4.4,2.36,6.6,2.36,24.91.06,49.82-.15,74.73-.14,1.36,0,2.72,1.31,4.08,2H544.38c-2.37-.52-4.76-1.46-7.07-1.29-.58.05-.89,3.65-1.33,5.61l0,3a23.79,23.79,0,0,0,4.9,1.08q70.27.08,140.57,0A11.85,11.85,0,0,0,684.65,322Zm-78,16.81c-.73,2-1.45,4-2.15,5.91,1,.47,1.36.73,1.67.73q41.36,0,82.7-.11c5.45,0,6.15-1.17,4.25-6.65-.44-.43-.88-1.24-1.32-1.24q-40.11.1-80.22.39A26,26,0,0,0,606.62,338.81Zm-8.6,5.38c.37-1.58.74-3.16,1.23-5.27-21,0-41.16.13-61.32-.1-4.29-.05-5.74,1.44-5.34,5.4a14,14,0,0,0,3.77,1.08q29,.1,57.95,0C595.55,345.28,596.78,344.57,598,344.19Zm-52.58-66.43-1.58,4.08L543.5,283a12.25,12.25,0,0,0,3.29.94q34.26.07,68.51,0a16.09,16.09,0,0,0,3.87-1c.16-1.68.32-3.37.49-5.2Zm51.7,109.7-.95,5.58c.8.43,1,.58,1.11.58q41.75.08,83.48.12a6.33,6.33,0,0,0,1.57,0c2.86-.69,3.4-3.79,1.15-6.51a18.49,18.49,0,0,0-3.93-.87q-39.06-.07-78.13,0C600,386.33,598.57,387.07,597.14,387.46Zm68.19-22.26c-1-.61-2.05-1.67-3.14-1.75-3.29-.24-6.61-.11-9.93-.11q-49.93,0-99.89.05c-1.92,0-3.84.42-5.75.34-4.15-.15-5.77,1.75-5.13,5.77a3,3,0,0,0,0,.85,1.49,1.49,0,0,0-.28.44c0,.13.06.41.12.42a23.59,23.59,0,0,0,3,.31q56.85,0,113.69,0a20.48,20.48,0,0,0,4.42-1C663.39,368.75,664.36,367,665.33,365.2ZM572.2,272c1.53.09,3.07.26,4.61.26,28.59,0,57.18-.1,85.76.13,4.66,0,5.79-1.86,5.52-6.36a51.66,51.66,0,0,0-6-.61c-11.19.1-22.38.41-33.57.47-17,.08-34,.11-51,0C573.13,265.81,571.23,267.22,572.2,272Zm73.63-18.08a34.51,34.51,0,0,0-3.94-.48c-29.7,0-59.4.06-89.09-.08-4.83,0-4.48,2.55-4,6.09h96.49C645.49,257.52,645.65,255.84,645.83,253.93Zm-89.55,77.68,1.28,1.7h82.5c.36-2.1.67-3.88,1-6.07-27.07,0-53.53-.07-80,.19C559.49,327.45,557.89,330.16,556.28,331.61Zm-7.56,49.84a6.41,6.41,0,0,0,1.62.51q38.64.07,77.28.11c4.52,0,4.32-2.81,4.1-6.05a19.45,19.45,0,0,0-2.32-.3c-25.58,0-51.17,0-76.75-.09C547.81,375.61,548.35,378.33,548.72,381.45Zm9.78-24c1.8.13,3.34.33,4.88.33,22.13,0,44.27-.16,66.4.05,5,0,6-1.88,5.19-6.42-24.25,0-48.3,0-72.34,0C558.23,351.41,558.86,354.45,558.5,357.49ZM693,277.92c-2.23-.15-3.77-.34-5.31-.34-18.25,0-36.5.1-54.74-.13-4.82-.06-6.13,1.77-5.34,6.32h63.92ZM638.33,381.73h60.75c.45-1.79.89-3.57,1.34-5.4a8.47,8.47,0,0,0-1.9-.57q-28.12-.06-56.25-.09C638,375.66,638.29,378.52,638.33,381.73Zm70.37-54.19H648l-1,6c19.69,0,38.81,0,57.94,0C709.38,333.6,708.8,330.67,708.7,327.54ZM662.32,290a20.43,20.43,0,0,0-3.12-.48c-26.83,0-53.66,0-80.49-.06-5.28,0-4.84,3.08-4.42,6.57a6.91,6.91,0,0,0,1.71.51q41,.06,82.08.08C663,296.59,662.7,293.52,662.32,290ZM526.94,259.12c.39,4,.88,6.64.85,9.31,0,2.06-1.16,4.17-.93,6.16a7.72,7.72,0,0,0,2.68,4.66c.84.67,2.78-.05,3.42-.1-.92-3.15-2.46-5.65-2.14-7.86.92-6.16.69-12.48,3.39-18.45,1.78-3.93,1.24-9.07,6.91-10.34.15,0,.11-.89.15-1.37-6.19-.4-8.18,1.24-9.38,7.81C531.08,253.38,530.77,258.06,526.94,259.12Z"/><path class="cls-9" d="M477.88,444.39c5.58,1,11.18,2,16.75,3.13a37.35,37.35,0,0,1,4.78,1.62c1.56.11,3.14.2,4.72.29L558.43,463l5.11,2.44c2.16.51,4.35.95,6.49,1.55,10.57,3,21.21,5.75,31.67,9.08,9.7,3.09,18.14,2.06,25.39-5.54,1.79-1.89,3.89-3.48,5.85-5.21l.69-1.23a16.59,16.59,0,0,1,15-3.83c3.36.74,6.64,1.85,10,2.79,2.85.79,5.67,2.15,8.54,2.24,6.6.2,12.73.9,16.45,7.32l2.4,7.17c-2,.45-3.88,1-5.86,1.32-9.29,1.39-19,1.5-27.82,4.3-22.58,7.17-44.81,15.46-67.14,23.42-24.64,8.77-49.24,17.57-74.86,23.38-27.19,6.17-54.55,10.11-82.45,10.08-2.68,0-5.37.08-8.05.12l-6.22-2.82,21.07-19.81a9.31,9.31,0,0,1,.89-2.39c7.33-9.71,15.34-19,21.92-29.18a119.94,119.94,0,0,0,17.89-44.4Z"/><path class="cls-3" d="M293.83,293.32c-1.63-5.12-2.38-10.75-5.05-15.25-10.49-17.76-12.33-36.7-8.62-56.42,3.3-17.56,12.86-26.07,31.18-26.93,9-.42,18.06,1.43,27.11,1.82,5.12.23,10.53.47,15.36-.89,7.26-2.05,14-2.25,21,.49,5,1.94,10.24,3.1,15.89,4.76a42.63,42.63,0,0,1-15.38,25c-4.09,1.43-8.11,3.2-12.31,4.18-3,.71-4.34,2.15-5.1,5-1.11,4.21-2.16,8.56-4.15,12.37-4.64,8.87-2.84,17.39.88,25.69,2.73,6.1,6.93,11,14.64,10.67,6.24,2.7,6.57,4.29,3.3,10.18a152.3,152.3,0,0,0-7.6,15.83c-2.73,6.58-12.35,10.29-20.15,7.14-2.88-1.16-5.47-3-8.18-4.59-4.65-7.31-3.57-14.15,1.3-21a47.38,47.38,0,0,0,4.62-8.85c4.95-11.51,4.93-22.79-1.64-33.36-2.09-.23-3.89-.08-5.44-.65-8.81-3.24-16.41,1.73-16.95,11.14-.42,7.22,3,12.37,10.08,17.25Z"/><path class="cls-3" d="M763.66,199.89l4.35,2.66c0,1.3-.51,3,.13,3.84,2.93,3.67-.12,7.09-.06,10.6.09,5.09-2.45,7.18-7.29,7.27-.46,0-.9,1.27-1.34,1.94H734.21c-3.24-3.78-7-3.78-9.56,0-1.39.11-2.78.31-4.17.31q-104.4,0-208.8,0c-1.39,0-2.78-.2-4.17-.31q-2.14-4.95-4.28,0h-2q-1-5.85-2.06-11.7c0-9.18,2.24-13,8.37-14.7a32,32,0,0,0,5.5.94q122.57.06,245.12,0A35.19,35.19,0,0,0,763.66,199.89Zm-6.77,18.28c1.35-2.62,2.81-4.18,2.68-5.6-.11-1.17-2.08-2.17-3.23-3.25-1.07,1.34-2.8,2.6-3,4.06C753.2,214.47,755.05,215.82,756.89,218.17Zm-25.11-5.35c-2.25-1.67-3.86-3.61-4.68-3.32a5.7,5.7,0,0,0-3.25,3.73c-.16.91,2,3.17,3.09,3.11C728.33,216.27,729.62,214.51,731.78,212.82Zm14.68.05c-2.17-1.59-3.52-3.33-4.88-3.34-1.07,0-3.15,2.31-3,3.27a5.54,5.54,0,0,0,3.35,3.58C742.78,216.63,744.3,214.63,746.46,212.87Z"/><path class="cls-10" d="M931.45,426.47c-.37-3.62-.73-7.24-1.13-11.22h6.17V406l5.38-1.08c1.06-2.87,1.34-6.52,3.18-7.68,1.57-1,5,.92,8,1.67.13-1.9.2-3.42.34-4.93.13-1.32.35-2.63.52-3.87,2.94,2,5.51,5.1,8.28,5.29,3,.21,6.16-2.3,10.23-4.05.72,1.21,1.49,4.19,3.28,5.05s4.47-.56,6.85-1c3.26,5.58,3.26,5.58,10.76,6.1-1.65,6,.1,10.13,7.59,10.18a21,21,0,0,1-1.78,3.69c-2.22,2.74-2,4.23,1.8,4.8,2.94.44,4.52,2.21,1.29,4.22s-2.49,4.17-.72,6c3,3,3.24,5.34-.11,8.22-4.33,3.72,1.26,4.44,3.07,7.19-5,1.75-10.79,3.21-6.38,10.22-5.09,1.56-9.94,2.62-10.93,8.36h-42c-1.87-2.19-3.71-4.23-7.09-2.58a2.84,2.84,0,0,1-2.68-.74c-.35-.86.16-2.09.36-3.15.34-1.77.72-3.52,1.13-5.5L931.11,451c1-2.6,1.94-4.9,2.8-7.1l-8.25-2.42c2.09-3.65,9.25-3.85,3.67-8.95C926.4,429.27,930.33,428.36,931.45,426.47Z"/><path class="cls-11" d="M293.83,293.32,328.66,277c-7.05-4.88-10.5-10-10.08-17.25.54-9.41,8.14-14.38,16.95-11.14,1.55.57,3.35.42,5.44.65,6.57,10.57,6.59,21.85,1.64,33.36a47.38,47.38,0,0,1-4.62,8.85c-4.87,6.81-5.95,13.65-1.3,21-1,2.73-2.05,5.47-3.08,8.21l-1.86.37a45.26,45.26,0,0,1-7-1.44c-10.93-4.07-21.8-8.17-33.81-7.24-1.24.1-2.54-.66-3.82-1a1.59,1.59,0,0,1,0-.78Zm40.3-23.62c.89-5.72-1.4-8.65-5.3-10.78-.82-.44-1.72-2.08-1.47-2.77a3.92,3.92,0,0,1,2.75-1.77,34,34,0,0,1,5.35-.08c-.6-1.55-1.33-2.24-2.16-2.39-3.43-.64-6.72-.67-8.45,3.2s1.15,5,3.66,6.82c1.47,1.05,2.14,3.24,3.14,4.94s1.88,3.31,2.82,5c1.59-1.07,3.21-2.12,4.76-3.26a8.18,8.18,0,0,0-.67-1.63Z"/><path class="cls-12" d="M731.82,489.3l82.73.08c10.27,0,10.58.31,10.43,10.72,0,.71-.09,1.41-.13,2.11-2.94.73-5.88,2.08-8.82,2.09-38.46.15-76.93.12-115.39.13-.11-.72-.22-1.43-.32-2.15,2-4.66-1.08-8.5-2.08-12.67Z"/><path class="cls-13" d="M287.06,310.48a1.59,1.59,0,0,0,0,.78c-16.12,4.86-26.43,16.44-34.88,30.15a172.52,172.52,0,0,0-19,44.32c-1.68,6-3.07,12-4.72,18.5h6.17c29.49,0,59,.08,88.47-.08,3.88,0,6.07.92,7.44,4.72,2.18,6.09,4.88,12,7.39,18,2,4.67,3.32,9.75,6.05,13.91,10.53,16,25.85,22.35,44.71,20.84,1.8-.14,3.62,0,5.43,0l-.27,1.73c-16.67,2.43-31.86-.88-45-12.37l-2.59-2.36,1.28,3.55c9.06,27.05,17.27,54.33,22.42,82.45a9.29,9.29,0,0,0,2.05,4.11c4.4,5.23,8.94,10.33,13.21,15.21,17.42-9.09,31.51-19.3,43.45-32.35,1.73-1.89,3.22-3.58,5.91-1.77l-21.07,19.81c-7.95,4.95-15.93,9.86-23.84,14.87-2.26,1.43-3.9,1.34-5.86-.69-3.8-3.93-7.88-7.58-12.07-11.56-.31,1.86-.54,3.22-.77,4.57a16.11,16.11,0,0,1-1.49-3.11c-6.11-24.74-11.14-49.82-18.57-74.16-6.45-21.14-15.61-41.44-23.58-62.12-1.57-.38-3.14-1.1-4.72-1.1q-80.57-.09-161.13-.05c-1.65,0-3.29.2-6.17.38l5.11,8.72c3.23,5.77,7.16,11.27,9.56,17.37,4.49,11.38,8.09,23.11,12.06,34.69,0,.25,0,.49-.07.74l-1.19,1.29c-4-11.6-7.54-23.35-12-34.74-2.4-6.09-6.45-11.53-9.58-17.36-2.06-3.84-3.8-7.86-6.25-13H224.6c6.33-17.46,11.77-34.09,18.42-50.22a93.27,93.27,0,0,1,22.09-32.42C271.29,315.84,278,310.75,287.06,310.48Z"/><path class="cls-14" d="M683.56,472.62c-3.72-6.42-9.85-7.12-16.45-7.32-2.87-.09-5.69-1.45-8.54-2.24,8.39-.22,16.78-.61,25.17-.62,50.07-.06,100.13-.15,150.2.08,9.78.05,15-6.13,16-13.22,1.12-7.8,1.59-15.69,2.42-23.52q4.93-46.78,9.91-93.55c1.19-11.32,2.18-22.67,3.27-34,1.32-13.6,3-27.18,3.88-40.81.64-9.29-5.49-15.18-14.73-15.21q-39-.15-77.93-.25c-1.76,0-3.51.11-5.26.18-3.32.15-4.85,1.66-3.85,5.08.08-2.15.17-4.29.25-6.44q42.58,0,85.17,0a34.31,34.31,0,0,0,5.54-.88c9.34,1.5,15.43,9.33,14.43,19.05-3.16,30.7-6.46,61.38-9.68,92.08q-5.08,48.39-10.1,96.79c-1.19,11.58-8.07,17.86-19.84,17.86q-50.28,0-100.56,0h-5v4.86l-3.36-5.78H682.58ZM834,464.91l.17-.42H733.24v.42Z"/><path class="cls-11" d="M369.32,283.82c-7.71.33-11.91-4.57-14.64-10.67-3.72-8.3-5.52-16.82-.88-25.69,2-3.81,3-8.16,4.15-12.37.76-2.85,2.09-4.29,5.1-5,4.2-1,8.22-2.75,12.31-4.18.6,1.45,1.58,2.86,1.73,4.35,1.67,17.23,1.78,34.31-5.74,50.51A24.85,24.85,0,0,1,369.32,283.82Z"/><path class="cls-3" d="M683.56,472.62l-1-7.88h41.89l3.36,5.78,4,18.78-33.58.31c-2.23-1.08-4.76-1.79-6.61-3.31-2.19-1.8-3.8-4.31-5.67-6.51Z"/><path class="cls-15" d="M501.19,226.21h6.32c1.39.11,2.78.31,4.17.31q104.4,0,208.8,0c1.39,0,2.78-.2,4.17-.31h34.8l8.47.45v1.54h-271c0-.63,0-1.27,0-1.91l.8-.11Z"/><path class="cls-13" d="M331.75,321l1.86-.37c31.74,8.91,56,29,78.15,52.23,21.31,22.33,42.43,44.84,63.58,67.32a23,23,0,0,1,2.54,4.25l-2.55-.58a22.89,22.89,0,0,0-1.81-2.51c-21.71-22.94-43.34-45.94-65.18-68.74-20.84-21.75-43.65-40.65-73.36-49.27C333.78,322.94,332.83,321.75,331.75,321Z"/><path class="cls-16" d="M991.05,477c-.33,4.14-.78,8.28-.95,12.43a19.65,19.65,0,0,1-7,14.94l-1.22.3-29.26,0-1.16-.25-.48-1.73c.14-.16.27-.32.4-.49.55-.4,1.15-1.22,1.63-1.15,12.3,1.72,22.77-2.66,32.05-10.13,3.39-2.74,5.52-6.72,3.46-11.74-7.11-.41-14.07-.76-21-1.22-1.86-.12-3.69-.57-5.54-.87Z"/><path class="cls-13" d="M951.47,504.41l1.16.25,1.82,1.49c-1.93.07-3.86.2-5.79.2l-114.34.19L829,508.6l-4.13-2.24c0-.7.11-1.41.16-2.11l122.27.13Z"/><path class="cls-17" d="M991.05,477l-29.08.11-16.9.11a4.53,4.53,0,0,0-1-.17c-3.62-1.52-4.91-4.59-3.74-7.91.68-1.92,3.17-3.21,4.84-4.78h42c3.08-.09,6.29.12,7.14,3.68S995.08,475.07,991.05,477ZM967.43,466.3c-6.31,0-12.63-.09-18.93,0-2.34.05-5.8-1.25-5.63,3.22.14,3.58,2.15,5.32,5.74,5.31,13,0,25.94-.1,38.91,0,3.34,0,4.12-1.32,4.12-4.38s-1-4.37-4.24-4.28C980.75,466.44,974.09,466.31,967.43,466.3Z"/><path class="cls-4" d="M763.66,199.89a35.19,35.19,0,0,1-5.54.85q-122.57.07-245.12,0a32,32,0,0,1-5.5-.94c1.74-.12,3.48-.34,5.22-.34q122.61,0,245.21,0C759.84,199.49,761.75,199.75,763.66,199.89Z"/><path class="cls-17" d="M825,504.25c0,.7-.11,1.41-.16,2.11q-44.42.11-88.82.2c-11.9,0-23.81-.18-35.72-.27.12-.62.23-1.24.35-1.86,38.46,0,76.93,0,115.39-.13,2.94,0,5.88-1.36,8.82-2.09C824.89,502.89,824.94,503.57,825,504.25Z"/><path class="cls-2" d="M181.73,472.7l-.9-3.27,1.19-1.29q38.39,0,76.75,0c11.9,0,23.81.17,35.71.26v1.81c-1.56.08-3.13.23-4.69.24l-106.55.08Z"/><path class="cls-13" d="M981.89,504.64l1.22-.3q52.14,0,104.3.08a28.82,28.82,0,0,1,5.28,1l-1.23,1.32-6.17-.17c-8.74-.06-17.48-.13-26.22-.16l-77.1-.25C981.94,505.64,981.91,505.14,981.89,504.64Z"/><path class="cls-13" d="M858.63,239.88a34.31,34.31,0,0,1-5.54.88q-42.58.08-85.17,0c0-.6.05-1.21.07-1.82q42.79,0,85.59.06A29.8,29.8,0,0,1,858.63,239.88Z"/><path class="cls-5" d="M123.45,505.1a38.39,38.39,0,0,1,5.47-.8q30.51-.17,61-.21c.06.76.13,1.52.2,2.29l-65.23.24Z"/><path class="cls-13" d="M504.13,449.43c-1.58-.09-3.16-.18-4.72-.29.58-1.44,1.48-2.84,1.63-4.31.94-9.63,1.71-19.27,2.54-28.91l9.36.1-.21,1.43c-3.1-1.34-5.79-1.32-6.19,2.8C505.62,430,504.92,439.7,504.13,449.43Z"/><path class="cls-13" d="M190.14,506.38c-.07-.77-.14-1.53-.2-2.29q-4.11-15.69-8.21-31.39l1.5-2.13,5.88,19.68c0,.65,0,1.3,0,2l4.74,18.6,2.59,1.15-4,1Z"/><path class="cls-4" d="M767.92,226.65l-8.47-.45c.44-.67.88-1.93,1.34-1.94,4.84-.09,7.38-2.18,7.29-7.27-.06-3.51,3-6.93.06-10.6-.64-.81-.12-2.54-.13-3.84.89,1.46,2.63,3,2.51,4.37C769.93,213.52,768.83,220.07,767.92,226.65Z"/><path class="cls-4" d="M123.45,505.1l1.46,1.52,0,23.86c-.47.49-1,1-1.42,1.48Q123.49,518.52,123.45,505.1Z"/><path class="cls-18" d="M931.45,426.47c-1.12,1.89-5.05,2.8-2.12,6.09-2.43,0-4.87.17-7.28,0a2.75,2.75,0,0,1-2-1.73,2.68,2.68,0,0,1,1.52-2.14C924.81,427.77,928.14,427.17,931.45,426.47Z"/><path class="cls-16" d="M944.05,477a5.15,5.15,0,0,1,1,.16q2.11,12,4.25,23.95v0q-1.71-3.51-3.41-7c-.14-.43-.28-.87-.43-1.3Z"/><path class="cls-4" d="M1091.46,506.72l1.23-1.32,0,26.37c-.41-.42-.81-.85-1.21-1.27Q1091.45,518.61,1091.46,506.72Z"/><path class="cls-4" d="M501.19,226.21l-3.41-.05c0-.73,0-1.45-.07-2.18q.71-4.72,1.42-9.47Q500.15,220.36,501.19,226.21Z"/><path class="cls-19" d="M497.71,224c0,.73.05,1.45.07,2.18l-.8.11C497.22,225.51,497.46,224.75,497.71,224Z"/><path class="cls-16" d="M951,502.68l-1.66-1.57v0l2.07,1.06C951.26,502.36,951.13,502.52,951,502.68Z"/><path class="cls-20" d="M124.8,533l2,0Z"/><path class="cls-21" d="M945.49,492.79c.15.43.29.87.43,1.3Z"/><path class="cls-21" d="M584.58,589.66c17.78,5.19,35.31,11,51.43,20.4,7.9,4.62,14.09,10.75,18,19.08.19,1.88-.1,4,.67,5.62a36.58,36.58,0,0,1,3.63,18c-.27,5,0,10.11-.09,15.17,0,1.54-.49,3.06-.59,4.59-.44,6.85-.82,13.7-1.22,20.54q-2.74,15.26-5.5,30.49c-.08-1-.16-2-.21-2.73-2.68,4.5-5.13,9.36-8.26,13.75-12.82,18-31.36,28.54-51,36.81-10.59,4.44-22.21,6.57-33.47,9.27-25.65,6.14-51.8,7.43-78,7.19a15,15,0,0,1-2.88-.44l30.69-49.19q3-9.8,6-19.6c6.22-.8,12.44-2.17,18.68-2.28,18.26-.31,36.52-.15,54.79-.11,3.74,0,6.82-.69,6.74-5.28s-3.61-4.23-6.82-4.41c-5.91-.33-11.82-.86-17.72-1.3a10,10,0,0,1,2.29-1.82,115.64,115.64,0,0,0,33.81-20,48.57,48.57,0,0,0,3.51-3.66l-1.17-1.25c-1.14.82-2.33,1.58-3.42,2.47a115.6,115.6,0,0,1-42.85,22.85,58.66,58.66,0,0,0-6.39,2.61l-11.92-.76c2.64-5.12,5.39-9.43,7.18-14.1,7.61-19.77,15.37-39.5,22.2-59.54C577.35,618.16,580.64,603.8,584.58,589.66Z"/><path class="cls-16" d="M507.69,738.21,477,787.4a15,15,0,0,0,2.88.44c26.25.24,52.4-1.05,78-7.19,11.26-2.7,22.88-4.83,33.47-9.27,19.68-8.27,38.22-18.81,51-36.81,3.13-4.39,5.58-9.25,8.26-13.75,0,.69.13,1.71.21,2.73-10,45.22-23,89.38-50.86,127.3-15.15,20.58-34.13,37.32-58.59,46.32-7.37,2.71-15.62,3-23.47,4.42,4.52-2.65,9.67-5,10.59-10.78.78-4.92,1.28-10.16.44-15-2.61-15-9-28.61-16.74-41.6-1.14-2.42-1.93-5.09-3.48-7.21-7.85-10.74-15.75-21.46-24-31.88a9.47,9.47,0,0,0-7.22-3c-3.25.31-6.33,2.35-9.48,3.66l-9.64,1.9-4.48-.1a20.91,20.91,0,0,1,.21-4.13c3-11.51,4.74-23.08,2.75-35a51.38,51.38,0,0,0-14.23-28.29c-3.45-3.51-6.71-7.21-10.05-10.83q37.88-.08,75.76-.13a14.51,14.51,0,0,1,2.57.48Z"/><path class="cls-2" d="M511,719.67a14.51,14.51,0,0,0-2.57-.48q-37.87,0-75.76.13l-46.42-3.14-1-.71a1.3,1.3,0,0,1,.33-.26l8.12-2.19,13,3c.16-.51.33-1,.49-1.53-17.41-11.52-24.9-28.79-28.36-48.39-3-17.08-2.49-34.21-.66-51.36,1.77-16.57,10.54-27.36,26.38-32.53,6.89-2.25,13.69-4.75,20.53-7.13,5.8-1.49,11.63-2.91,17.39-4.57.77-.22,1.19-1.66,1.78-2.54l2.12-.35c1.81,1.85,3.92,1.46,7.2-1.3l17.25-2.88,2.86-.87,5.4-.16,5.24-.67c23.61-1.51,47.21-3.49,70.85-4.34,15.34-.55,27.51,11.56,29.07,27.07.18,1.74.25,3.49.37,5.24-3.94,14.14-7.23,28.5-12,42.38-6.83,20-14.59,39.77-22.2,59.54-1.79,4.67-4.54,9-7.18,14.1l11.91.76,14.23-1.21c5.9.44,11.81,1,17.72,1.3,3.21.18,6.74-.28,6.82,4.41s-3,5.29-6.74,5.28c-18.27,0-36.53-.2-54.79.11-6.24.11-12.46,1.48-18.68,2.28Zm39.71-157.34c-2.61-.06-5.24-.36-7.83-.16-18.41,1.46-36.81,3-55.21,4.55L466,570.87a301.93,301.93,0,0,0-66.1,18.25c-9.88,4-15.34,12.66-16.73,23.25a153.12,153.12,0,0,0-1.72,24.07c.27,10.08,1.73,20.12,2.68,30.18a71.93,71.93,0,0,0,14.48,33.85c3.24,4.2,7.18,6.88,13,6.18a120.36,120.36,0,0,1,15.2-.58c22.07.1,44.13.4,66.19.44,8.89,0,17.78-.47,26.67-.72L509.6,714c17.25.52,30-7.53,36-23.32,8.49-22.24,17-44.48,24.85-67,3.84-11,7.47-22.38,8.86-33.87C581.45,572.51,568,560.47,550.67,562.33Z"/><path class="cls-22" d="M856.49,830l-31.92-1c-.7,0-1.41,0-2.11,0-9.5.26-9.22-.07-10.38-9.77-1.88-15.74-.67-31.33,1.35-46.87.79-6.1,3-12.05,5.07-17.92.4-1.16,2.84-2.27,4.36-2.29,11.2-.17,22.42-.06,33.63,0Z"/><path class="cls-17" d="M686,479.79c1.87,2.2,3.48,4.71,5.67,6.51,1.85,1.52,4.38,2.23,6.61,3.31,1,4.17,4,8,2.08,12.67l-13.19-5.93c-1.46,3.34-2.49,5.71-3.53,8.08-5,1.89-6.23,1.16-7.49-3.87a16.92,16.92,0,0,0-2-3.67L672,491.68c-2.45-1.76-4.76-4.62-7.4-5s-7.35,1.23-8,3c-2.67,7.91-8,12.81-15,16.47-7,.6-14.25.09-20.82,2-18.48,5.43-36.69,11.83-55,18-3.73,1.25-7.29,3-10.93,4.53l-24.11,7.33c-10.22,2.26-20.36,5-30.68,6.65-11.35,1.84-22.86,2.71-34.3,4-2.41.28-4.81.66-7.16,1l-8.55-1-30.35-6.28c2.68,0,5.37-.12,8.05-.12,27.9,0,55.26-3.91,82.45-10.08,25.62-5.81,50.22-14.61,74.86-23.38,22.33-8,44.56-16.25,67.14-23.42,8.84-2.8,18.53-2.91,27.82-4.3C682.08,480.81,684,480.24,686,479.79Z"/><path class="cls-3" d="M512.28,834.21c7.76,13,14.13,26.61,16.74,41.6.84,4.84.34,10.08-.44,15-.92,5.76-6.07,8.13-10.59,10.78-10.42,1.94-18.88-1.85-25-9.92-6.54-8.6-12.2-17.87-18.24-26.85,0-1.4,0-2.81,0-4.21q1.17-3.17,2.32-6.34l2.18-.33c1.18-.6,2.62-.93,3.49-1.83A68.89,68.89,0,0,1,512.28,834.21Z"/><path class="cls-22" d="M856.48,915.35c-7.2-9.45-15.26-18.4-21.38-28.51s-10.49-21.09-15-32c-2.35-5.74-3.36-12.06-4.74-18.17-.73-3.25.69-4.68,4.28-4.62,12.26.2,24.53.12,36.8.14Z"/><path class="cls-23" d="M786,667.74c4.67,4.2,9.83,8,13.91,12.69,9.57,11.07,19.36,22.09,27.65,34.09,6.26,9.07,10.36,19.62,15.4,29.53,1.64,3.22.81,4.29-3,5-11.7,2.1-18.62-5.4-24.64-12.81a200.48,200.48,0,0,1-18.91-28.77C789.76,695.5,786.74,682.23,786,667.74Z"/><path class="cls-24" d="M856.49,749.84c-.66-.25-1.37-.82-2-.7-6.37,1.28-8.38-3-10.08-7.74C835.59,717,820.07,697.07,801.88,679c-4.16-4.14-8.15-8.44-12.08-13.1,9.66,2.63,19.58,4.37,28.26,10.16,4.81,3.21,10.11,5.7,15.19,8.51.94,1.78,1.53,3.9,2.88,5.27,8.55,8.61,14.24,19.16,20.32,29.46Q856.47,734.55,856.49,749.84Z"/><path class="cls-24" d="M833.3,683.53a268.83,268.83,0,0,1,14.26-72.28l1.82-.3c1,5,2.12,10,2.84,15.06.92,6.53,1.44,13.13,2.3,19.68.1.75,1.26,1.36,1.93,2q0,29.55-.11,59.1c-3.5-4-6.83-8.08-10.54-11.82C841.82,691,837.48,687.34,833.3,683.53Z"/><path class="cls-14" d="M474.76,860.61c0,1.4,0,2.81,0,4.21l-8.08,12.26a91.78,91.78,0,0,0,2.54-9.81c.49-3.31,1.34-7.12.2-10-1.73-4.32-5-8-7.7-12l-2.19.12c-1.46,2.92-3.85,5.73-4.2,8.79-1.1,9.37-1.31,18.85-2.09,28.28-.61,7.28.34,8.63,7.8,9.68l4.78,6.12-2.19.49-3.47-2.3-6.86-3.86c.88,10.7,1.22,19.9,8.66,26.83l-2,2.29c-6.57-8.61-8.43-18.6-8.56-29.1-.35-.89-.7-1.77-1.06-2.66.76-11.13,1.33-22.28,2.34-33.39.81-9,3-18,3-27,0-11.29-3.89-21.26-14.65-27.13L441,800l1.72.2c3.65,4.12,8,7.83,10.79,12.45,5.54,9,5,19.27,4.19,29.53,6.24-7.29,10.58-15.23,11-25.16.36-8.64-2.85-15-10.28-19.33l9.63-1.91c-.33,1.72-1.56,4-.87,5.06,5.64,8.5,5.5,17.43,2.27,26.49-1.22,3.42-1,5.68,1.63,8.33,5,5,9.59,10.34,8.16,18.28l-2.18.33c.48-8.49-4.69-13.42-11.08-18.41l-3.9,6.76,1.71-.43c3.16,6,6.31,12,9.53,17.94C473.51,860.46,474.28,860.46,474.76,860.61Z"/><path class="cls-20" d="M840.54,935.78c-8.78.08-17.56.23-26.34.23q-67.73,0-135.46,0c-2.63,0-5.25-.2-7.87-.3.94-1.14,1.69-2.61,2.89-3.31.92-.54,2.4-.13,3.62-.13q75.79,0,151.58.05c3.9,0,7.8.66,11.7,1,0,.35.07.71.11,1.06S840.62,935.32,840.54,935.78Z"/><path class="cls-25" d="M461,892.19c-7.46-1.05-8.41-2.4-7.8-9.68.78-9.43,1-18.91,2.09-28.28.35-3.06,2.74-5.87,4.2-8.79l2.19-.12c2.65,4,6,7.65,7.7,12,1.14,2.86.29,6.67-.2,10a91.78,91.78,0,0,1-2.54,9.81Z"/><path class="cls-26" d="M840.54,935.78c.08-.46.15-.92.23-1.39h8.39c7.31,0,7.31,0,7.32-7.33V749.84q0-15.29,0-30.56c0-3.14,0-6.28,0-9.41l.9,0,.6,39.09c0,1,0,2,0,3-.13,1.39-.36,2.77-.36,4.16q0,77.86,0,155.72c0,1.21.22,2.42.34,3.64v16.87c0,1,.08,2,.13,3l-2.79.93-2.88,0h-1.36Z"/><path class="cls-15" d="M857.39,709.85l-.9,0-.15-3q.06-29.55.11-59.1c0-33.5.07-67-.06-100.49,0-3-1.31-5.93-2-8.89l3.11-.25.69,4.15c-.09.67-.17,1.35-.25,2v1.26q0,33.12,0,66.23V613l0,5.13c0,3.55,0,7.09,0,10.64l0,15.68v1.23q0,8.88,0,17.76c-.13,1.9-.36,3.8-.37,5.69C857.49,682.7,857.45,696.27,857.39,709.85Z"/><path class="cls-27" d="M856.34,706.82l.15,3c0,3.13,0,6.27,0,9.41-6.08-10.3-11.77-20.85-20.32-29.46-1.35-1.37-1.94-3.49-2.88-5.27,0-.34,0-.68,0-1,4.18,3.81,8.52,7.46,12.5,11.47C849.51,698.74,852.84,702.86,856.34,706.82Z"/><path class="cls-28" d="M656.41,693.06c.4-6.84.78-13.69,1.22-20.54.1-1.53.57-3,.59-4.59.08-5.06-.18-10.13.09-15.17a36.58,36.58,0,0,0-3.63-18c-.77-1.62-.48-3.74-.67-5.62,2,6.45,5.41,12.86,5.59,19.36.32,11.24-1.37,22.54-2.24,33.81C657.09,685.9,656.73,689.48,656.41,693.06Z"/><path class="cls-19" d="M856.48,927.07c0,7.34,0,7.34-7.32,7.33h-8.39c0-.35-.08-.71-.11-1.06C844.67,928.05,849.9,925.86,856.48,927.07Z"/><path class="cls-13" d="M450.13,548.69l8.55,1a3.57,3.57,0,0,0,.88,0c.08,0,.13-.3.19-.46l-.95.4A30.74,30.74,0,0,1,462,551.9c3.93,3.51,7.8,7.07,11.69,10.62l-2.86.87c-.86-5.62-5.57-7.2-9.76-9.31Z"/><path class="cls-13" d="M484.29,561.69l-5.24.67Z"/><path class="cls-29" d="M193.87,510.81l-4.74-18.6,4.2.38c1.06.4,2.12,1.15,3.18,1.15q50.82.09,101.64,0c1.25,0,2.5-1.2,3.75-1.83-1.68-.65-3.36-1.85-5-1.85-24-.12-48,0-72-.07-9.8,0-19.6-.19-29.41-.29l-1.08,0-5.21.61-5.88-19.68,106.55-.08c1.56,0,3.13-.16,4.69-.24l1.08-1.77c-1.89-.69-3.78-2-5.67-2q-50.85-.19-101.69-.06a37.76,37.76,0,0,0-6.1,1c-4-11.58-7.57-23.31-12.06-34.69-2.4-6.1-6.33-11.6-9.56-17.37.17-2.4.35-4.79.58-7.95H327.38c8,20.68,17.13,41,23.58,62.12,7.43,24.34,12.46,49.42,18.57,74.16a16.11,16.11,0,0,0,1.49,3.11c0,.68.26,1.54,0,2-3.93,5.89-3.81,8.62.76,14.73l0,2.94a28.49,28.49,0,0,0-.65,3.63c-.28,5.84-.48,11.68-.71,17.53l-.44-.24.44.24c.2,1.5.39,3,.58,4.51l-.27-.17-1.25,1.65c-2.66,6.16-5.82,12.16-7.82,18.52-1.43,4.57-1.31,9.62-1.89,14.46-1.41,1.17-3.31,2.06-4.14,3.54-7.22,12.93-17.46,23.2-29.07,32-25.75,19.39-55,28.8-87.26,28.88-8.56,0-17.13.34-25.69.53-1.17-2.15-2.52-4.22-3.47-6.45-5.6-13.08-6.23-26.88-5.54-40.81.51-10.29,1.34-20.55,2-30.83.81-2.83,1.77-5.64,2.37-8.52a20.89,20.89,0,0,0-.07-4.6c-1.18-12.32-2.25-24.65-3.62-36.95-.29-2.58-1.67-5.05-2.55-7.57.22-.9.45-1.79.68-2.68V553c-.05-.47-.1-.93-.14-1.4l-4.17-16.84a.89.89,0,0,0-.25-.91l-.27-1q-1.83-7.95-3.68-15.91c-1.23-4.5,2.3-2.85,4-2.86,35.37-.08,70.74,0,106.11-.11,1.9,0,3.79-.82,5.69-1.25,2-3.07-1-1.94-1.84-1.94Q251.38,510.7,193.87,510.81Z"/><path class="cls-15" d="M268.15,917.51l-2.07,2.28c0-5.54-.65-11.17.13-16.59.71-4.94,2.94-9.65,4.5-14.47.38-5.16,1.69-10.45,1-15.45-1.51-10.38-4-20.62-6.26-30.88-4.35-20.09,2.71-33.71,20.35-39,7.56-2.28,12.22-.81,16.95,5.64,5.77,7.86,7.8,16.83,6.77,26.38-1,9.23-2.78,18.38-3.7,27.61-.87,8.68-1,17.43-1.57,26.69-2.41,0-4.81,0-7.22,0-14.22.2-23.19,9-23.88,23.25-.07,1.48-1.21,2.91-1.85,4.36l-2-1.08q.92-8.16,1.84-16.32l-1.92-.11Zm.68-86.35c2.09,5,3.44,10.55,6.43,15,5.47,8.1,15.84,8.49,22.63,1.63,8.86-9,8-27.51-1.74-35.56a14.12,14.12,0,0,0-18.31.18C272.19,817.16,270.41,823.54,268.83,831.16Z"/><path class="cls-30" d="M365.34,837.31c-4.88,2.51-9.81,4.93-14.63,7.55a36,36,0,0,0-4.55,3.5l-6,4.78c-.7-9.76-7.18-14.81-12.71-20.4,5.15-12.27,6.08-24.07-2.53-35.13l9.55-4.94c3.75,1.27,7.91,1.91,11.13,4,2.85,1.85,4.68,5.3,6.93,8.08q6.33,7.8,12.61,15.63l.6,17Z"/><path class="cls-13" d="M271.26,917.32c.64-1.45,1.78-2.88,1.85-4.36.69-14.22,9.66-23.05,23.88-23.25,2.41,0,4.81,0,7.22,0,.52-9.26.7-18,1.57-26.69.92-9.23,2.71-18.38,3.7-27.61,1-9.55-1-18.52-6.77-26.38-4.73-6.45-9.39-7.92-16.95-5.64-17.64,5.31-24.7,18.93-20.35,39,2.23,10.26,4.75,20.5,6.26,30.88.73,5-.58,10.29-1,15.45-.11-2.34-.23-4.69-.34-7Q269,871,267.54,860.39L267,858.5c-.54-2.52-1.09-5-1.63-7.55-.26-1.07-.52-2.13-.77-3.2q-1.37-7.05-2.72-14.1a32.26,32.26,0,0,0,.61-3.49c1.14-18.48,13.38-29.77,32.13-29.64,2.44,0,4.88.05,7.31.08a29.18,29.18,0,0,1,13.87,18.67c1.73,7,3.78,14.19-.05,21.26-.05-2.08-.23-4.16-.14-6.22.46-9.59-1.51-18.48-7.63-26.07-1.33-1.66-3.43-2.71-5.18-4,.73,2.9,2.19,4.85,3.45,6.93,7,11.48,5.43,23.72,3.71,36.2s-2.5,25.39-3.6,38.09c-.2,2.42-.35,5.26,4.13,3.87,0-3.23-.24-6.54.05-9.8.44-4.9,1.24-9.76,1.89-14.64v24.89h10.33l19,0,.09,2.5-21.64,2.25c-4.72,1.4-7.62,3.86-6,9.42a30.3,30.3,0,0,1,.55,5.68l-.47,1.88c-.9-2.82-1.81-5.63-2.82-8.79-2.81,5.2-2.81,5.2-.07,12.65l-5.23,1.07c-.32-8-.65-15.91-1-23.71-20-2.69-32.64,8.32-28.94,24.26Zm35.41-25.54c.35,4.12.61,7.3.87,10.47l2.17,0c.38-3.06.86-6.12,1-9.19C310.7,892.78,308.55,892.38,306.67,891.78Z"/><path class="cls-13" d="M202.75,555.75c.88,2.52,2.26,5,2.55,7.57,1.37,12.3,2.44,24.63,3.62,36.95a3.35,3.35,0,0,1-.29.44,1.76,1.76,0,0,1-.33.27c-.59-3.53-1.19-7.05-1.83-10.82-7.28,5.1-11.94,11.77-13.2,20.28-3.07,20.63-3.53,41.3,1.43,61.72,3.68,15.17,10.22,28.78,23.65,37.94,5.34,3.65,11,6.42,17,5L217.49,699.3c3.14,2.33,6.06,5.1,9.48,6.89,4.63,2.41,7.85,7.8,14.08,7l.33,1-3.81,1.17,4.08,1c.06.34.1.69.14,1-17.4,2.74-29.21-6-38.43-19.28-9.78-14.14-13.41-30.43-14-47.21-.43-13.08.45-26.24,1.48-39.31a29,29,0,0,1,12.86-22c3.28-2.27,3.57-4.7,2.93-8q-2.43-12.31-4.72-24.67C201.89,556.56,202.47,556.12,202.75,555.75Z"/><path class="cls-25" d="M315.75,840.53c3.83-7.07,1.78-14.31.05-21.26a29.18,29.18,0,0,0-13.87-18.67L319,798.43c6,3.52,9.33,8.68,9.39,15.68.09,9.74-3.21,18.42-8.81,26.25-.91,1.28-2.47,2.08-3.73,3.11-.14-.79-.28-1.58-.43-2.37l.08-.38Z"/><path class="cls-16" d="M365.17,820.39q-6.3-7.82-12.61-15.63c-2.25-2.78-4.08-6.23-6.93-8.08-3.22-2.1-7.38-2.74-11.13-4l7.6-8,5.21-3.8c3.24,2.75,6.29,5.79,9.8,8.14,2.31,1.55,5.29,2.11,8,3.12Z"/><path class="cls-14" d="M315.86,843.47c1.26-1,2.82-1.83,3.73-3.11,5.6-7.83,8.9-16.51,8.81-26.25-.06-7-3.42-12.16-9.39-15.68l5.94-.82c8.61,11.06,7.68,22.86,2.53,35.13,5.53,5.59,12,10.64,12.71,20.4l6-4.78c-.4,6.59-6.24,7.55-10.5,10.16,3.27-10.3-2-16.94-10-22.71-.68,3.37-5.48,5.45-1.31,10,3.39,3.69,5.45,8.59,8.28,12.83.38.57,1.83.43,2.79.61,0,2.62,0,5.23.07,7.85L333.6,865l-6.26,9.71c.61-2.42,1.06-4.9,1.84-7.27,2.61-7.87-.39-14.93-8.79-21l-5.66,2.16Q315.3,846,315.86,843.47Z"/><path class="cls-3" d="M347.31,780.84l-5.21,3.8q0-32.65,0-65.31l4.06.22v-4.32a3,3,0,0,0,.06-.73l2,0c.1,1.39.21,2.78.31,4.16q.06,29.13.14,58.25C348.22,778.25,347.77,779.55,347.31,780.84Z"/><path class="cls-3" d="M241.79,717.32c0-.35-.08-.7-.13-1l1.09-1.14a6.06,6.06,0,0,0,1.51.41q50.42-.13,100.82-.31c-3.92,1-7.84,2.87-11.78,2.9-28.75.27-57.5.17-86.26.19l-2.17-.39-1.36-.52Z"/><path class="cls-2" d="M247,718.33c28.76,0,57.51.08,86.26-.19,3.94,0,7.86-1.89,11.78-2.9h1.09v4.32l-4.06-.22c-5.06-.17-10.11-.47-15.16-.48-25.44,0-50.88,0-76.33,0A26.11,26.11,0,0,1,247,718.33Z"/><path class="cls-15" d="M267.54,860.39q1.43,10.65,2.83,21.3c-3,.32-4.71-.59-4.36-4C266.59,871.92,267,866.15,267.54,860.39Z"/><path class="cls-13" d="M203.44,553v.1l-4.22-9.93c-.24-1.3-.49-2.59-.73-3.89.21-1.51.43-3,.65-4.52l4.17,16.84C203.35,552,203.39,552.5,203.44,553Z"/><path class="cls-15" d="M261.88,833.65q1.35,7.05,2.72,14.1c-.93-1.08-2.55-2.1-2.66-3.26C261.61,840.91,261.86,837.27,261.88,833.65Z"/><path class="cls-15" d="M265.37,851c.54,2.52,1.09,5,1.63,7.55C264.33,856.44,263,854.11,265.37,851Z"/><path class="cls-13" d="M243.51,717.42l1.36.52Z"/><path class="cls-31" d="M982,506.14l77.1.25c8.74,0,17.48.1,26.22.16,3,2.95,6.5,5.61,5.32,10.74-.38,1.66,0,3.49-.06,5.23-.07,5.77-1.36,7-7.1,7.15-4.63.16-9.26.58-13.89.89l-2.27,0a42.13,42.13,0,0,0-6.06-.87q-109.35-.06-218.69,0c-1.58,0-3.44.52-4.68-.14-2.08-1.11-5.34-3-5.34-4.51,0-6.15,1.1-12.3,1.8-18.45l114.34-.19c1.93,0,3.86-.13,5.79-.2Z"/><path class="cls-6" d="M554.93,530.72c3.64-1.52,7.2-3.28,10.93-4.53,18.27-6.13,36.48-12.53,55-18,6.57-1.93,13.86-1.42,20.82-2l12.4-.1h4.22l25.41.05,16.62.12c11.91.09,23.82.28,35.72.27q44.41,0,88.82-.2L829,508.6q-.48,10.93-1,21.89c-1,.09-2.09.25-3.14.25Z"/><path class="cls-32" d="M865,936.26l-.64-1.91.18-2,0-1.25q0-92.13,0-184.25V745.6l.36-7.32q1.05,5.37,2.12,10.72c0,1,0,2,0,3v77c0,1,0,2.06,0,3.09q0,43.33,0,86.68a37,37,0,0,0,1,6.1c0,.34,0,.68,0,1l0,0-1,1c.12,2.35.23,4.7.37,7.39H925c6.16-.7,12.32-2,18.48-2q53.47-.29,107,0c5,0,6.48-1.22,6.47-6.36q-.21-189.87,0-379.73c0-4.7-1.06-6.26-6.06-6.25q-89,.27-178.08,0c-4.69,0-5.89,1.3-5.86,5.91.2,33.18.11,66.36.11,99.54q0,43.25,0,86.48l-2.13-2.06c-.1-2.27-.28-4.55-.28-6.83q-.09-30.27-.11-60.55c0-.43,0-.85,0-1.27V542.18l.41-4.12,188.93,0c1.75,0,3.5.15,5.24.23,0,.7,0,1.41,0,2.11q0,194.35,0,388.72c0,1.75.14,3.5.21,5.25l-2.45,2.1-1,0c-25-.08-50-.21-75.06-.22-14.35,0-28.69.15-43,.24h-1l-17.91,0-52.76,0A1.12,1.12,0,0,0,865,936.26Z"/><path class="cls-4" d="M864.53,746.87q0,92.11,0,184.25l0,1.25-.18,2c-.52-2-1.49-4.06-1.49-6.1q-.11-191.1-.08-382.22c0-2.26-.34-4.52-.62-8l-4,4.25-.69-4.15,7.41,0c-.13,1.37-.27,2.74-.41,4.12,0,.42,0,.84,0,1.26V661.28c0,.42,0,.84,0,1.27q0,30.27.11,60.55c0,2.28.18,4.56.28,6.83v8.35l-.36,7.32Z"/><path class="cls-4" d="M1059.26,934.41c-.07-1.75-.21-3.5-.21-5.25q0-194.37,0-388.72c0-.7,0-1.41,0-2.11.71.58,2,1.1,2,1.75.21,2.07,0,4.19,0,6.29q0,192.74,0,385.45v4.1Z"/><path class="cls-26" d="M828,530.49q.48-10.95,1-21.89l5.36-2.06c-.7,6.15-1.78,12.3-1.8,18.45,0,1.54,3.26,3.4,5.34,4.51,1.24.66,3.1.14,4.68.14q109.35,0,218.69,0a42.13,42.13,0,0,1,6.06.87c-3.33.08-6.67.22-10,.22q-109.39,0-218.78,0C835,530.77,831.49,530.59,828,530.49Z"/><path class="cls-26" d="M1069.56,530.56c4.63-.31,9.26-.73,13.89-.89,5.74-.19,7-1.38,7.1-7.15,0-1.74-.32-3.57.06-5.23,1.18-5.13-2.28-7.79-5.32-10.74l6.17.17q0,11.89,0,23.78Z"/><path class="cls-4" d="M866,936.49l52.76,0a15.68,15.68,0,0,1-3.84,1q-22.53.11-45.06,0A16.19,16.19,0,0,1,866,936.49Z"/><path class="cls-4" d="M936.63,936.51h0Z"/><path class="cls-4" d="M1055.76,936.49l1,0Z"/><polygon class="cls-5" points="1071 938.83 1071.05 939.17 1071.1 938.83 1071 938.83"/><path class="cls-21" d="M442.74,800.2,441,800c-10.52-.46-20.4,1.27-28.85,8.19-.85.69-2.23.74-3.37,1.08-6.79-1.52-13.56-3.14-20.38-4.53-7.68-1.57-8.53-2.48-8.53-10.3q0-35,0-69.91l.66-1.46,1.72,1.21.52-.83-2-1q1.4-2.67,2.81-5.34l2.61-1,46.42,3.14c3.34,3.62,6.6,7.32,10.05,10.83a51.38,51.38,0,0,1,14.23,28.29c2,11.94.24,23.51-2.75,35a20.85,20.85,0,0,0-.21,4.12l-.06-.09-4.94.1Z"/><path class="cls-16" d="M379.87,724.53q0,35,0,69.91c0,7.82.85,8.73,8.53,10.3,6.82,1.39,13.59,3,20.38,4.53-8.71,15.2-5.79,30.79-2.2,46.69,2.22,9.79,2.85,20,3.88,30,.1,1-1.94,3.06-3.07,3.13-5.72.32-11.48.15-17.89.15,1-14.74-2.68-28-9.42-40.5-.39-.93-.79-1.86-1.18-2.8-.07-1.74-.2-3.49-.19-5.24q0-52.28.11-104.56c0-2.08-.27-4.16-.42-6.24Q379.16,727.21,379.87,724.53Z"/><path class="cls-15" d="M445.54,870.1v19.28h-31.4c-3.15-18-6.62-35.65-9.21-53.41-2.42-16.51,5.33-28.1,21.27-32.47,3.58-1,7.73.11,11.61.25,10.12,8.37,13.18,19.52,12,32C448.7,847.23,447,858.66,445.54,870.1Zm-36.33-40.47.9.57a83.46,83.46,0,0,0,1.58,9.25c3.64,12.69,16.94,16.95,26.17,8.5,8.16-7.46,8.56-25.87.73-33.66-7.51-7.47-16.66-7.5-23,.88C412.5,819.26,411.28,824.76,409.21,829.63Z"/><path class="cls-33" d="M351.43,893.38c2.9,1.67,5.79,3.36,8.71,5,1.65.92,3.36,1.72,5.05,2.58a14.49,14.49,0,0,1-.09,2.09c-.68,3.55-.38,6.78,3.65,8,4.84,1.48,7.36-.2,9.63-4.87.75-1.54,3-2.61,4.75-3.35a57.74,57.74,0,0,1,7.32-2l9-2.37,10.51.4-.42,1.82c-3.24.91-2.74,2.51-.8,4.37-1.48,8.71-1.4,17.08,5.29,24-3.09,3.07-6.87,3.45-11,3.39-12.59-.18-25.2-.14-37.8,0a23.76,23.76,0,0,0-6.88,1.49c-3,1-8-1.79-7.91-5C350.63,917.07,351.07,905.23,351.43,893.38Z"/><path class="cls-15" d="M276.29,917c-3.7-15.94,9-27,28.94-24.26.32,7.8.65,15.76,1,23.71-9.09,4.12-11,9.41-6,19.51L284,933.76C285.93,923.35,284,919.51,276.29,917Z"/><path class="cls-7" d="M320.21,894.54l21.65-2.25c.13.69.25,1.39.38,2.08q0,19.46,0,38.91c0,4.27-3.48,2.47-5.52,3.18l-11.86-12.59c-.72-1-1.44-2-2.15-3l0,0C319.07,912.37,317.54,903.66,320.21,894.54Z"/><path class="cls-15" d="M412.2,896.43c.26-1.32.52-2.65.76-3.91,14-1.23,23.28,8.62,22.43,23.51-9.25,4.74-10.85,7.88-8.32,17l-2.89.28c-13.06-7.14-16.17-13.58-13.47-27.77C411.29,902.54,411.71,899.48,412.2,896.43Z"/><path class="cls-15" d="M457.86,926c.86,3,1.72,5.94,2.66,9.16H446c.32-3.63,1.78-7.8.65-11.08s-4.83-5.78-8.57-9.89c.41-7.55-2.55-15.72-12.08-21.94h19.17C446,904.83,448,916.91,457.86,926Z"/><path class="cls-26" d="M351.43,893.38c-.36,11.85-.8,23.69-1,35.54-.06,3.17,4.89,5.94,7.91,5a23.76,23.76,0,0,1,6.88-1.49c12.6-.14,25.21-.18,37.8,0,4.17.06,7.95-.32,11-3.39l10.05,5.6,1.15,1.92-1,0-69.6,0h-3.18l-1,0-2-2.15V899.65l0-6.43Z"/><path class="cls-32" d="M441.08,802.51c10.76,5.87,14.69,15.84,14.65,27.13,0,9-2.23,18-3,27-1,11.11-1.58,22.26-2.34,33.39-2.36,0-3.93-.65-3.76-3.51.14-2.22-.09-4.45-.16-6.68,0-1.33,0-2.65,0-4,.21-1.89.41-3.77.62-5.66.34-3,.68-5.91,1-8.87,1.22-10.94,3.14-21.86,3.44-32.83a30.1,30.1,0,0,0-11.41-24.82Z"/><path class="cls-32" d="M327.34,874.68,333.6,865l1.9,2.12c4.33,6.94,8.35,14,6.27,22.7l-19,0Q325.07,882.21,327.34,874.68Z"/><path class="cls-4" d="M375.5,888l-1.56,0c-.15-1.39-.31-2.78-.46-4.17.16-.71.32-1.43.47-2.14.12-.1.33-.22.32-.29a3.9,3.9,0,0,0-.31-.73V865.86c.11-.1.33-.23.31-.3a3.6,3.6,0,0,0-.32-.73l0-16.92q0-16.83,0-33.65V763.58l0-17.84q0-7.4,0-14.8l.68-1,1.17,0,.24,16.76q0,9.06,0,18.12v43.07q0,7.47,0,14.95v4q0,10.68,0,21.34,0,20,0,39.94l-.22-.2Z"/><path class="cls-19" d="M390.45,900.79a57.74,57.74,0,0,0-7.32,2c-1.78.74-4,1.81-4.75,3.35-2.27,4.67-4.79,6.35-9.63,4.87-4-1.22-4.33-4.45-3.65-8a14.49,14.49,0,0,0,.09-2.09c.13-2.76.27-5.52.42-8.52h7.74c.26,3.82.51,7.59.76,11.36l2,0V892.2l1.57-.05,2.16,9.38Z"/><path class="cls-25" d="M335.43,859.24c-1-.18-2.41,0-2.79-.61-2.83-4.24-4.89-9.14-8.28-12.83-4.17-4.54.63-6.62,1.31-10,8,5.77,13.26,12.41,10,22.71A.91.91,0,0,0,335.43,859.24Z"/><path class="cls-16" d="M390.45,900.79l-10.65.74c4.77-4.59,8.42-10.95,16.8-9.43,4.21.76,8.59.68,12.89,1l-10.05,5.33Z"/><path class="cls-32" d="M460.14,896.5l3.47,2.3a22.5,22.5,0,0,1,4.79,17.51L462,918.47A35,35,0,0,1,460.14,896.5Z"/><path class="cls-13" d="M440.13,803.65a30.1,30.1,0,0,1,11.41,24.82c-.3,11-2.22,21.89-3.44,32.83-.33,3-.67,5.91-1,8.87l-1.55-.07c1.44-11.44,3.16-22.87,4.26-34.35,1.19-12.48-1.87-23.63-12-32Z"/><path class="cls-32" d="M373.48,883.8c.15,1.39.31,2.78.46,4.17l-8.6,2.67V837.31l.43.11c.49,1.7,1.39,3.4,1.41,5.11.12,12.61,0,25.22.12,37.83,0,2.46.8,4.9,1.22,7.35Z"/><path class="cls-32" d="M451.41,892.66c.13,10.5,2,20.49,8.56,29.1-.33.73-.65,1.47-1,2.2a34.34,34.34,0,0,1-3.95-4c-6-8.28-7.76-17.79-7.69-27.78Z"/><path class="cls-26" d="M311.43,915.38c-2.74-7.45-2.74-7.45.07-12.65,1,3.16,1.92,6,2.82,8.79,2.36,7.86,7.63,13.6,13.57,18.92,1.4,1.26,4.62,2.39,1.52,5.15l-2.29-2.27.05.07-3.2-2.13h0l-2.13-2.13,0,0-1.09-1.1.07.05Z"/><path class="cls-13" d="M424.07,934.6,414,929c-6.69-6.91-6.77-15.28-5.29-24,.27-1.45.54-2.91.8-4.37l.42-1.82,1.58-1.52.67-.87c-.49,3.05-.91,6.11-1.49,9.15-2.7,14.19.41,20.63,13.47,27.77Z"/><path class="cls-25" d="M460.14,896.5a35,35,0,0,0,1.82,22,1.43,1.43,0,0,1,0,1c-7.44-6.93-7.78-16.13-8.66-26.83Z"/><path class="cls-14" d="M329.41,935.59c3.1-2.76-.12-3.89-1.52-5.15-5.94-5.32-11.21-11.06-13.57-18.92.16-.63.32-1.25.47-1.87l7.92,11.23,0,0c.71,1,1.43,2,2.15,3l11.86,12.59C333.78,940.51,331.67,937.42,329.41,935.59Z"/><path class="cls-4" d="M342.26,933.28l0-38.91c.61,1.08,1.73,2.15,1.75,3.23q.18,16.21,0,32.44C344,931.12,342.85,932.2,342.26,933.28Z"/><path class="cls-13" d="M447.35,892.22c-.07,10,1.67,19.5,7.69,27.78a34.34,34.34,0,0,0,3.95,4L457.86,926c-9.9-9.12-11.91-21.2-12.71-33.75Z"/><path class="cls-32" d="M327.12,933.32l-10.23,3.17-.92-1.6,4.89-6.78-.07-.05,1.09,1.1,0,0,2.13,2.13h0l3.2,2.13Z"/><path class="cls-4" d="M378.92,845.93c.39.94.79,1.87,1.18,2.8-.06,11.59-.09,23.18-.23,34.77A36.45,36.45,0,0,1,379,889l-.3-.21-.32.18.12-40.87c.13-.75.25-1.5.38-2.25Z"/><path class="cls-13" d="M268.15,917.51l1.05-17.7,1.92.11q-.93,8.16-1.84,16.32Z"/><path class="cls-15" d="M411.53,897.3,410,898.82l-10.51-.4,10.05-5.33Z"/><path class="cls-4" d="M348.4,893.22l0,6.43Z"/><path class="cls-4" d="M348.37,931.17v0Z"/><path class="cls-13" d="M446.47,875.83c0,1.33,0,2.65,0,4C446.44,878.48,446.46,877.16,446.47,875.83Z"/><path class="cls-28" d="M378.41,890.81l-2.19-1.31a3.37,3.37,0,0,0,.5-.42l1.64-.09.32-.18.3.21c-.24.61-.48,1.22-.71,1.83Z"/><path class="cls-4" d="M350.4,936.56l1,0Z"/><path class="cls-4" d="M424.2,936.54l1,0Z"/><path class="cls-4" d="M353.54,936.52h0Z"/><path class="cls-15" d="M378.41,890.81l-.14,0Z"/><path class="cls-28" d="M376.22,889.5,375.5,888l.26-.15.22.2.74,1.08A3.37,3.37,0,0,1,376.22,889.5Z"/><path class="cls-6" d="M124.94,530.48l0-23.86,65.23-.24,2.37,6.54,1,4.06c.94,4.39,1.89,8.77,2.91,13.54l-3.11.33H160.56l-4.15,0h-4.22Z"/><path class="cls-4" d="M193.5,517l-1-4.06,4-1H309.21l1.09.8.43-.09c-1.9.43-3.79,1.24-5.69,1.25-35.37.07-70.74,0-106.11.11-1.7,0-5.23-1.64-4,2.86Z"/><path class="cls-5" d="M160.56,530.85h0Z"/><path class="cls-7" d="M164.75,538.32l-1.76.79Z"/><path class="cls-13" d="M198.61,532.8l.27,1Z"/><path class="cls-4" d="M858,611.76q0-33.12,0-66.23c.28-.38.56-.77.85-1.15a38.19,38.19,0,0,1,.82,5.57q.06,189.93,0,379.86c0,1.86-1,3.72-1.48,5.58-.05-1-.09-2-.13-3V915.48a44.8,44.8,0,0,0,.6-5.13q0-76.9,0-153.79A36.15,36.15,0,0,0,858,752v-3a20.88,20.88,0,0,0,.59-3.55q.06-39.23,0-78.44a19.75,19.75,0,0,0-.64-3.52q0-8.88,0-17.76c0-.41,0-.82,0-1.23l0-15.68c0-3.55,0-7.09,0-10.64,0-1.71,0-3.42,0-5.13Z"/><path class="cls-5" d="M858.79,544.38c-.29.38-.57.77-.85,1.15,0-.42,0-.84,0-1.26A1.81,1.81,0,0,1,858.79,544.38Z"/><path class="cls-4" d="M851.07,936.38h1.36l-.92.79C851.37,936.9,851.22,936.64,851.07,936.38Z"/><path class="cls-2" d="M1221,937.94l.37-.14c0,.18.07.37.11.56a1.18,1.18,0,0,1-.4-.09C1221,938.22,1221,938.06,1221,937.94Z"/><path class="cls-6" d="M512.73,417.45l.21-1.43c2.63-.06,5.26-.19,7.89-.19H736.18c12.68,0,12.68,0,15-12.78L763,407.67c.77-3.18,1-5.1,1.71-6.83.6-1.45,1.47-3.21,2.73-3.9a59.16,59.16,0,0,1,8.15-3.13l3,2.18c3.12,4.56,5.78,2.64,8.81-.32,2.85-2.78,3.56-5-.2-7.42l-1.52-3c2.92-5.58,5-11.88,13.22-12,.88,0,2.19-4.63,2.29-7.15,0-1.21-2.27-2.52-3.52-3.78,1.08-5.95-4.6-3.56-6.78-5.5-1.54-5.35.35-9.66,5-13.37l-4-3.41-4.34-6-4.29-2.06L780,334c-6,3-10.37-1-13-12.08l-7.57-.75q2-19.5,4-39c.84-8.33,1.72-16.66,2.35-25,.56-7.56.75-7.87,8.24-7.88l83.77-.19c5.72,1.51,6.34,5.86,5.87,10.72-1,10.47-2,20.95-3.15,31.41q-7.39,70.65-14.82,141.28c-.82,7.85-1.45,8.48-9.36,8.48l-172.81,0H519.17c-7.44,0-8.15-.83-7.55-8.34C512,427.57,512.36,422.51,512.73,417.45Zm271.93-94.09,2.32,4.08,6.3-4.93c1.1,1.46,3.18,3,3.11,4.36-.22,4.22,2.12,4.81,5.31,4.85-.4,3.78,2.79,2.83,4.65,3.26,1.07.25,3.4-.46,3.44-.91.57-5.92,5.72-6.85,9.58-9.16l3.34,1c1.13,1,3,3.07,3.27,2.9a24.44,24.44,0,0,0,4.92-5c.2-.27-1.5-1.92-2.32-2.93a2.58,2.58,0,0,0,0-1c1.26-5.16,1.57-10.91,9.13-11.3,1-.06,2.32-3.54,2.5-5.52.09-1-2.08-2.16-3.22-3.25.71-3.84-1.88-4.78-4.79-5.45-1.21-2.7-1.26-5,1.34-7.18,3-2.48,1.82-4.66-1.14-6.3l-2.56-3.78c-1.09-1.3-2.19-2.6-3.24-3.83-8.77,5-11.34,3.7-14.42-7-5.06-1.13-9.62-2.39-10.93,5.44-.34,2-5.46,5.09-9.57,2.26l-3.55-3.36c-2.53,2.28-4.81,4.34-7,6.3,4.62,9.43,2.81,12.9-7.82,15.26-.24,2.94-.49,6-.74,9l1.52-.88c2.22,2.49,4.65,4.82,6.61,7.49,3.29,4.48-3,5.91-3.36,9.45l3.69,4.3Z"/><path class="cls-34" d="M512.73,417.45c-.37,5.06-.7,10.12-1.11,15.18-.6,7.51.11,8.34,7.55,8.34H663.53l172.81,0c7.91,0,8.54-.63,9.36-8.48q7.39-70.64,14.82-141.28c1.1-10.46,2.13-20.94,3.15-31.41.47-4.86-.15-9.21-5.87-10.72a53.16,53.16,0,0,0-7.16-.93c-25.63-.07-51.26,0-76.89-.07a45.32,45.32,0,0,1-6.08-.84c-1-3.43.53-4.94,3.85-5.09,1.75-.07,3.5-.18,5.26-.18q39,.1,77.93.25c9.24,0,15.37,5.92,14.73,15.21-.92,13.63-2.56,27.21-3.88,40.81-1.09,11.33-2.08,22.68-3.27,34q-4.89,46.78-9.91,93.55c-.83,7.83-1.3,15.72-2.42,23.52-1,7.09-6.24,13.27-16,13.22-50.07-.23-100.13-.14-150.2-.08-8.39,0-16.78.4-25.17.62-3.32-.94-6.6-2.05-10-2.79a16.59,16.59,0,0,0-15,3.83c-1.57-.56-3.14-1.6-4.72-1.61q-27.92-.18-55.83-.05c-4.88,0-9.76.37-14.65.57l-54.3-13.58c.79-9.73,1.49-19.46,2.41-29.18C506.94,416.13,509.63,416.11,512.73,417.45Z"/><path class="cls-11" d="M757.21,338.93c.9-3.33,1.84-6.65,2.68-10s3.49-2.69,5.87-2.61c.76,2.28.9,5.21,2.43,6.69,2.17,2.09,5.38,3.12,8.14,4.6,1.58.81,3.19,2.35,4.72,2.27,2.37-.13,4.69-1.36,7-2.12l2,3.23.05-.05L789,342l0,0c-3.93,1.32-5.16,3.58-3.79,7.82,1.51,4.71,2.25,9.58,8.16,11,1,.23,1.65,1.54,2.47,2.35-.3,1.7-.6,3.4-1,5.47-4.58.67-8.73.56-11.54,6.39-2.71,5.62-1.39,8.94,1.95,13.05l-7.48,6.42c-2.87-5.74-6.49-5.46-11.82-4.14-6.39,1.57-6.58,6.13-7.82,10.76l-5-.34q-1.05-5.07-2.11-10.14a16.63,16.63,0,0,0,.95-3.42c.3-4.59,1.51-6.64,7.14-5.68s11-2.19,14.41-7a16,16,0,0,0,1.65-16.7c-.34-.74-.68-1.48-1-2.22-3.27-7.27-8.71-11.33-16.84-11.42Z"/><path class="cls-35" d="M565.46,301.85l123.86.17h7.51c.76,4.48-.29,6.74-4.93,6.47-2.79-.16-5.6.14-8.4.24l-16.93,0c-13.32-.1-26.65-.28-40-.27-22.79,0-45.59.16-68.38.25-1.74-.33-4.48,0-3.23-3a6.85,6.85,0,0,1,3.8-3.53C560.85,301.52,563.22,301.91,565.46,301.85Z"/><path class="cls-35" d="M541.44,370.35a3.44,3.44,0,0,1,0-.85c.68-.15,1.88-.17,1.95-.47,1.2-4.75,4.93-3.84,8.27-3.84H665.33c-1,1.77-1.94,3.55-2.92,5.32Z"/><path class="cls-35" d="M572.2,272c-1-4.79.93-6.2,5.29-6.16,17,.16,34,.13,51,0,11.19-.06,22.38-.37,33.57-.47a51.66,51.66,0,0,1,6,.61c.27,4.5-.86,6.4-5.52,6.36-28.58-.23-57.17-.11-85.76-.13C575.27,272.27,573.73,272.1,572.2,272Z"/><path class="cls-35" d="M544.37,314.6H685.89c-.5,2.6-.87,4.5-1.23,6.4l-140.25-.11c3.35-.69,6.69-2,10.05-2,40.89-.14,81.79-.09,122.69-.1,1.92,0,3.85-.19,5.77-.29,0-.34-.07-.69-.11-1H540.41l-.23,1.09,3.13,2.31-6.5-2.13C537.05,313.24,541.4,315.18,544.37,314.6Z"/><path class="cls-35" d="M645.83,253.93c-.18,1.91-.34,3.59-.52,5.53H548.82c-.5-3.54-.85-6.12,4-6.09,29.69.14,59.39.06,89.09.08A34.51,34.51,0,0,1,645.83,253.93Z"/><path class="cls-35" d="M683.5,387.19c2.25,2.72,1.71,5.82-1.15,6.51a6.33,6.33,0,0,1-1.57,0q-41.74,0-83.48-.12c-.15,0-.31-.15-1.11-.58l.95-5.58,11.06-.06Z"/><path class="cls-35" d="M556.28,331.61c1.61-1.45,3.21-4.16,4.83-4.18,26.46-.26,52.92-.19,80-.19-.37,2.19-.68,4-1,6.07h-82.5Z"/><path class="cls-35" d="M548.72,381.45c-.37-3.12-.91-5.84,3.93-5.82,25.58.13,51.17.07,76.75.09a19.45,19.45,0,0,1,2.32.3c.22,3.24.42,6.06-4.1,6.05Q589,382,550.34,382A6.41,6.41,0,0,1,548.72,381.45Z"/><path class="cls-25" d="M558.5,357.49c.36-3-.27-6.08,4.13-6.07,24,.06,48.09,0,72.34,0,.84,4.54-.24,6.46-5.19,6.42-22.13-.21-44.27-.05-66.4-.05C561.84,357.82,560.3,357.62,558.5,357.49Z"/><path class="cls-6" d="M753.11,375.76c0-1.05,0-2.1,0-3.15.65-.5,1.84-1,1.86-1.51.19-4.77.18-9.55.23-14.32l0-4.19,9.59-4.54,8.12,8.83c1.34,7.74-1.49,13.87-7.24,18.89l-9.81,2.47Z"/><path class="cls-25" d="M693,277.92l-1.47,5.85H627.65c-.79-4.55.52-6.38,5.34-6.32,18.24.23,36.49.1,54.74.13C689.27,277.58,690.81,277.77,693,277.92Z"/><path class="cls-35" d="M543.86,281.84l1.58-4.08a31.58,31.58,0,0,0,5.46,1c20.47.06,40.94.14,61.41-.06,3.58,0,5.88.77,6.86,4.3a16.09,16.09,0,0,1-3.87,1q-34.26.1-68.51,0a12.25,12.25,0,0,1-3.29-.94l2.12-.25c0-.19,0-.37,0-.55Z"/><path class="cls-25" d="M638.33,381.73c0-3.21-.36-6.07,3.94-6.06q28.13.07,56.25.09a8.47,8.47,0,0,1,1.9.57c-.45,1.83-.89,3.61-1.34,5.4Z"/><path class="cls-25" d="M708.7,327.54c.1,3.13.68,6.06-3.75,6.06-19.13,0-38.25,0-57.94,0l1-6Z"/><path class="cls-35" d="M532.59,344.22c-.4-4,1-5.45,5.34-5.4,20.16.23,40.32.1,61.32.1-.49,2.11-.86,3.69-1.23,5.27Z"/><path class="cls-18" d="M648.77,314.61H634c-1.36-.7-2.72-2-4.08-2-24.91,0-49.82.2-74.73.14-2.2,0-4.4-1.53-6.6-2.36l135,0c-1.52.7-3,2-4.57,2-8.54.2-17.1,0-25.64.19C651.81,312.64,650.29,313.91,648.77,314.61Z"/><path class="cls-17" d="M662.32,290c.38,3.56.67,6.63-4.24,6.62q-41-.07-82.08-.08a6.91,6.91,0,0,1-1.71-.51c-.42-3.49-.86-6.59,4.42-6.57,26.83.09,53.66,0,80.49.06A20.43,20.43,0,0,1,662.32,290Zm-44.41,5.65v0c12.48,0,25,.08,37.43-.1,1.65,0,3.29-1.4,4.93-2.15-1.55-.69-3.1-2-4.66-2q-37.43-.19-74.85,0c-1.55,0-3.1,1.29-4.65,2,1.63.74,3.26,2.11,4.91,2.13C593.31,295.69,605.61,295.61,617.91,295.61Z"/><path class="cls-21" d="M588.86,392.07l.13.26-.16.23c-19.83,0-39.65.07-59.47-.05-1.27,0-2.53-1.45-3.79-2.23,1.25-.62,2.49-1.78,3.74-1.79,18.59-.12,37.19-.16,55.78.06C586.36,388.57,587.6,390.85,588.86,392.07Z"/><path class="cls-28" d="M665.33,365.2H551.7c-3.34,0-7.07-.91-8.27,3.84-.07.3-1.27.32-1.95.47-.63-4,1-5.92,5.14-5.77,1.91.08,3.83-.34,5.75-.34q49.95,0,99.89-.05c3.32,0,6.64-.13,9.93.11C663.28,363.53,664.29,364.59,665.33,365.2Z"/><path class="cls-28" d="M693.09,338.69c1.9,5.48,1.2,6.64-4.25,6.65q-41.34.09-82.7.11c-.31,0-.63-.26-1.67-.73.7-1.92,1.42-3.92,2.15-5.91Zm-1.4,5c.1-.78.21-1.57.32-2.36-2.32-.48-4.64-1.38-7-1.39-23.13-.09-46.26,0-69.39,0a29.5,29.5,0,0,0-5.24.11c-.95.17-1.76,1.19-2.63,1.82a21.16,21.16,0,0,0,2.82,2.22c.53.3,1.37.07,2.07.07q37.07,0,74.12,0C688.43,344.11,690.06,343.85,691.69,343.71Z"/><path class="cls-32" d="M683.56,310.4l-135,0-2.81-1.22L551,308c2.06-3.21,3.17-7,5.28-7.69,2.64-.85,6.1.88,9.2,1.5-2.24.06-4.61-.33-6.67.31a6.85,6.85,0,0,0-3.8,3.53c-1.25,3,1.49,2.67,3.23,3a25.8,25.8,0,0,0,4,.63q50.12.06,100.24,0a27.09,27.09,0,0,0,4.06-.61l16.93,0Z"/><path class="cls-28" d="M526.94,259.12c3.83-1.06,4.14-5.74,4.95-10.18,1.2-6.57,3.19-8.21,9.38-7.81,0,.48,0,1.34-.15,1.37-5.67,1.27-5.13,6.41-6.91,10.34-2.7,6-2.47,12.29-3.39,18.45-.32,2.21,1.22,4.71,2.14,7.86-.64.05-2.58.77-3.42.1a7.72,7.72,0,0,1-2.68-4.66c-.23-2,.91-4.1.93-6.16C527.82,265.76,527.33,263.09,526.94,259.12Z"/><path class="cls-14" d="M753.2,400.76l5,.35c1.24-4.63,1.43-9.19,7.82-10.76,5.33-1.32,9-1.6,11.82,4.14l7.48-6.42c-3.34-4.11-4.66-7.43-1.95-13.05,2.81-5.83,7-5.72,11.54-6.39.36-2.07.66-3.77,1-5.47h1.34c.52,4.77-.36,7.75-6.4,7.72-5.83,0-8.91,9.3-5.15,14.39l1.52,3L778.56,396l-3-2.18c-1.84-.94-3.79-2.85-5.51-2.65-6.55.74-10.42,4.63-10.46,11.82l-8.32-.65C751.91,401.81,752.56,401.29,753.2,400.76Z"/><path class="cls-36" d="M544.41,320.9l140.25.11c0,.33,0,.66,0,1l-148.71-.08c0-1,0-2,0-3,.27-.06.55-.11.83-.15l6.5,2.13Z"/><path class="cls-32" d="M535.94,321.92l148.71.08a11.85,11.85,0,0,1-3.24,1q-70.29.08-140.57,0A23.79,23.79,0,0,1,535.94,321.92Z"/><path class="cls-28" d="M711.13,364.88a1.82,1.82,0,0,0-.16-.76,2.08,2.08,0,0,0,0-1c4.93-1.85,7.56-.17,7.2,4.7-.14,1.91-.94,3.78-.93,5.67,0,2.72.53,5.44.92,9-3.87,1.28-4.37,6-5.18,10.62-1.12,6.54-2.83,7.86-9.42,7.86.66-.91,1.29-1.85,2-2.74,1.46-1.84,3.48-3.43,4.36-5.51,3-7.12,3.45-14.85,4.87-22.35C715.43,367,715.18,364.88,711.13,364.88Z"/><path class="cls-28" d="M588.86,392.07c-1.26-1.22-2.5-3.5-3.77-3.52-18.59-.22-37.19-.18-55.78-.06-1.25,0-2.49,1.17-3.74,1.79,1.26.78,2.52,2.22,3.79,2.23,19.82.12,39.64.07,59.47.05-1.07.4-2.13,1.15-3.2,1.16q-29.91.09-59.83,0a24.84,24.84,0,0,1-3-.49c1-2.25,1.82-4.16,2.66-6.07l64.29.18Z"/><path class="cls-18" d="M753.11,375.76l2.83,2.48,9.81-2.47c1.44-.7,3.21-1.08,4.25-2.16,4.09-4.26,5.27-9.56,4.72-15.33l.52-.41a16,16,0,0,1-1.65,16.7c-3.41,4.77-8.72,7.92-14.41,7s-6.84,1.09-7.14,5.68a16.63,16.63,0,0,1-.95,3.42c0-3.62-.22-7.25,0-10.85C751.24,378.4,752.42,377.1,753.11,375.76Z"/><path class="cls-32" d="M541.44,370.35l121,.17a20.48,20.48,0,0,1-4.42,1q-56.84.08-113.69,0a23.59,23.59,0,0,1-3-.31c-.06,0-.15-.29-.12-.42A1.49,1.49,0,0,1,541.44,370.35Z"/><path class="cls-11" d="M751.26,402.33l8.32.65c0-7.19,3.91-11.08,10.46-11.82,1.72-.2,3.67,1.71,5.51,2.65a59.16,59.16,0,0,0-8.15,3.13c-1.26.69-2.13,2.45-2.73,3.9-.71,1.73-.94,3.65-1.71,6.83L751.13,403A1.45,1.45,0,0,1,751.26,402.33Z"/><path class="cls-26" d="M711.13,364.88c4,0,4.3,2.13,3.65,5.55-1.42,7.5-1.87,15.23-4.87,22.35-.88,2.08-2.9,3.67-4.36,5.51-.71.89-1.34,1.83-2,2.74-3.47-.89-1.38-3-.36-3.68,7.44-4.83,5.23-13.29,7.77-19.94.3-.78-.15-2.07.32-2.54C714.78,371.42,712.26,368.18,711.13,364.88Z"/><path class="cls-26" d="M693.09,338.69l-86.47.12a26,26,0,0,1,4.93-1q40.11-.29,80.22-.39C692.21,337.45,692.65,338.26,693.09,338.69Z"/><path class="cls-26" d="M683.5,387.19l-75.3.21-11.06.06c1.43-.39,2.86-1.13,4.3-1.13q39.06-.1,78.13,0A18.49,18.49,0,0,1,683.5,387.19Z"/><path class="cls-28" d="M619.17,283c-1-3.53-3.28-4.33-6.86-4.3-20.47.2-40.94.12-61.41.06a31.58,31.58,0,0,1-5.46-1h74.22C619.49,279.59,619.33,281.28,619.17,283Z"/><path class="cls-13" d="M776.33,337.61c-2.76-1.48-6-2.51-8.14-4.6-1.53-1.48-1.67-4.41-2.43-6.69a17.75,17.75,0,0,0-2.51-3.2,20,20,0,0,0-3.79-2l7.57.75C769.62,333,774,337,780,334l.81.92Z"/><path class="cls-26" d="M589.73,387.36l-64.29-.18a7.59,7.59,0,0,1,2.37-.87q30.42-.07,60.85,0a1.58,1.58,0,0,1,1,.23C589.78,386.65,589.7,387.07,589.73,387.36Z"/><path class="cls-28" d="M532.59,344.22l65.43,0c-1.24.38-2.47,1.09-3.71,1.1q-29,.1-57.95,0A14,14,0,0,1,532.59,344.22Z"/><path class="cls-18" d="M764.87,348.05l-9.59,4.54c.09-1.7.19-3.41.31-5.42-2.66-1-6.53-1.64-3.38-6.08l.94.93,4.06-3.09c0,1.77.11,3.54.16,5.3.37.73.58,1.9,1.14,2.1C760.57,347.08,762.74,347.5,764.87,348.05Z"/><path class="cls-18" d="M755.25,356.78c0,4.77,0,9.55-.23,14.32,0,.53-1.21,1-1.86,1.51,0-4.63-.07-9.27.11-13.89C753.3,358.05,754.56,357.42,755.25,356.78Z"/><path class="cls-32" d="M536.81,318.77c-.28,0-.56.09-.83.15.44-2,.75-5.56,1.33-5.61,2.31-.17,4.7.77,7.07,1.29C541.4,315.18,537.05,313.24,536.81,318.77Z"/><path class="cls-28" d="M543.86,281.84l1.75.36c0,.18,0,.36,0,.55l-2.12.25Z"/><path class="cls-26" d="M711,363.16a2.08,2.08,0,0,1,0,1,5.38,5.38,0,0,1-.39-.7S710.83,363.25,711,363.16Z"/><path class="cls-37" d="M331.75,321c1.08.79,2,2,3.23,2.33,29.71,8.62,52.52,27.52,73.36,49.27,21.84,22.8,43.47,45.8,65.18,68.74a22.89,22.89,0,0,1,1.81,2.51,119.94,119.94,0,0,1-17.89,44.4c-6.58,10.2-14.59,19.47-21.92,29.18a9.31,9.31,0,0,0-.89,2.39c-2.69-1.81-4.18-.12-5.91,1.77-11.94,13.05-26,23.26-43.45,32.35-4.27-4.88-8.81-10-13.21-15.21a9.29,9.29,0,0,1-2.05-4.11c-5.15-28.12-13.36-55.4-22.42-82.45l1.31-1.19c13.12,11.49,28.31,14.8,45,12.37l.27-1.73c-1.81,0-3.63-.12-5.43,0-18.86,1.51-34.18-4.82-44.71-20.84-2.73-4.16-4.09-9.24-6.05-13.91-2.51-6-5.21-11.89-7.39-18-1.37-3.8-3.56-4.74-7.44-4.72-29.49.16-59,.08-88.47.08h-6.17c1.65-6.48,3-12.53,4.72-18.5a172.52,172.52,0,0,1,19-44.32c8.45-13.71,18.76-25.29,34.88-30.15,1.28.36,2.58,1.12,3.82,1,12-.93,22.88,3.17,33.81,7.24A45.26,45.26,0,0,0,331.75,321Z"/><path class="cls-38" d="M371,592.13c-.19-1.51-.38-3-.58-4.52h0c.23-5.85.43-11.69.71-17.53a28.49,28.49,0,0,1,.65-3.63c.3,2.5.59,5,.89,7.49l1,1.26c.19-.41.39-.82.59-1.23-.43-3.59,2.22-7.92-2.53-10.46-4.57-6.11-4.69-8.84-.76-14.73.31-.46,0-1.32,0-2,.23-1.35.46-2.71.77-4.57,4.19,4,8.27,7.63,12.07,11.56,2,2,3.6,2.12,5.86.69,7.91-5,15.89-9.92,23.84-14.87l6.22,2.82,30.35,6.28,10.9,5.39c-8.76,2-17.49,4.07-26.27,5.93-19.53,4.13-37.87,11.48-55.59,20.45-2.37,1.2-5.69,3.34-1.41,6.52l-2.92,1.75-1.2-5.71C372.52,586.89,371.75,589.51,371,592.13Zm2.28-12.08.33-.35a2.83,2.83,0,0,0-.63-.31c-.08,0-.21.2-.31.31Z"/><path class="cls-18" d="M632.94,465.33c-2,1.73-4.06,3.32-5.85,5.21-7.25,7.6-15.69,8.63-25.39,5.54C591.24,472.75,580.6,470,570,467c-2.14-.6-4.33-1-6.5-1.55,4.38.05,8.76.16,13.14.14Q604.81,465.5,632.94,465.33Z"/><path class="cls-14" d="M632.94,465.33q-28.12.14-56.27.26c-4.38,0-8.76-.09-13.14-.14l-5.1-2.44c4.89-.2,9.77-.55,14.65-.57q27.92-.1,55.83.05c1.58,0,3.15,1.05,4.72,1.61Z"/><path class="cls-39" d="M756.89,218.17c-1.84-2.35-3.69-3.7-3.55-4.79.2-1.46,1.93-2.72,3-4.06,1.15,1.08,3.12,2.08,3.23,3.25C759.7,214,758.24,215.55,756.89,218.17Z"/><path class="cls-26" d="M731.78,212.82c-2.16,1.69-3.45,3.45-4.84,3.52-1.05.06-3.25-2.2-3.09-3.11a5.7,5.7,0,0,1,3.25-3.73C727.92,209.21,729.53,211.15,731.78,212.82Z"/><path class="cls-40" d="M746.46,212.87c-2.16,1.76-3.68,3.76-4.51,3.51a5.54,5.54,0,0,1-3.35-3.58c-.17-1,1.91-3.27,3-3.27C742.94,209.54,744.29,211.28,746.46,212.87Z"/><path class="cls-4" d="M734.21,226.21h-9.56C727.24,222.43,731,222.43,734.21,226.21Z"/><path class="cls-4" d="M507.51,226.2h-4.28Q505.38,221.25,507.51,226.2Z"/><path class="cls-14" d="M334.13,269.7l4.43-2.75a8.18,8.18,0,0,1,.67,1.63c-1.55,1.14-3.17,2.19-4.76,3.26-.94-1.66-1.86-3.33-2.82-5s-1.67-3.89-3.14-4.94c-2.51-1.78-5.39-2.94-3.66-6.82s5-3.84,8.45-3.2c.83.15,1.56.84,2.16,2.39a34,34,0,0,0-5.35.08,3.92,3.92,0,0,0-2.75,1.77c-.25.69.65,2.33,1.47,2.77C332.73,261.05,335,264,334.13,269.7Z"/><path class="cls-3" d="M700.29,506.29l-16.62-.12c0-.58,0-1.16-.07-1.74,1-2.37,2.07-4.74,3.53-8.08l13.19,5.93c.1.72.21,1.43.32,2.15C700.52,505.05,700.41,505.67,700.29,506.29Z"/><path class="cls-41" d="M182.09,467.4a37.76,37.76,0,0,1,6.1-1q50.84-.09,101.69.06c1.89,0,3.78,1.3,5.67,2l-1.07,0c-11.9-.09-23.81-.24-35.71-.26q-38.37-.07-76.75,0C182.05,467.89,182.08,467.65,182.09,467.4Z"/><path class="cls-32" d="M327.38,407.39H161.05c-.23,3.16-.41,5.55-.58,7.95l-5.11-8.72c2.88-.18,4.52-.38,6.17-.38q80.57,0,161.13.05C324.24,406.29,325.81,407,327.38,407.39Z"/><path class="cls-33" d="M347.59,452.13c-.26-.71-.51-1.42-1.28-3.55l2.59,2.36Z"/><path class="cls-4" d="M834,464.91H733.24v-.42H834.17Z"/><path class="cls-21" d="M951.39,502.19l-2.07-1.06q-2.13-12-4.25-23.95l16.9-.1c1.85.3,3.68.75,5.54.87,7,.46,13.91.81,21,1.22,2.06,5-.07,9-3.46,11.74-9.28,7.47-19.75,11.85-32.05,10.13C952.54,501,951.94,501.79,951.39,502.19Z"/><path class="cls-2" d="M982,506.14H954.45l-1.82-1.49,29.26,0C981.91,505.14,981.94,505.64,982,506.14Z"/><path class="cls-25" d="M967.43,466.3c6.66,0,13.32.14,20-.05,3.26-.09,4.24,1.14,4.24,4.28s-.78,4.41-4.12,4.38c-13-.14-25.94-.06-38.91,0-3.59,0-5.6-1.73-5.74-5.31-.17-4.47,3.29-3.17,5.63-3.22C954.8,466.21,961.12,466.3,967.43,466.3Z"/><path class="cls-13" d="M294.48,468.44l1.07,0-1.08,1.77C294.48,469.64,294.48,469,294.48,468.44Z"/><path class="cls-4" d="M189.11,490.25l5.21-.61,1.08,0c9.81.1,19.61.27,29.41.29,24,0,48,0,72,.07,1.69,0,3.37,1.2,5,1.85-2.08.14-4.17.39-6.25.39q-46.18,0-92.38,0c-3.31,0-6.63.22-9.94.34l-4.2-.38C189.12,491.55,189.12,490.9,189.11,490.25Z"/><path class="cls-26" d="M309.21,512H196.46l-2.59-1.15q57.51-.07,115-.08c.83,0,3.82-1.13,1.84,1.94l-.43.09Z"/><path class="cls-26" d="M569.38,705.23l-14.23,1.21a59.65,59.65,0,0,1,6.4-2.61A115.6,115.6,0,0,0,604.4,681c1.09-.89,2.28-1.65,3.42-2.47l1.17,1.25a48.57,48.57,0,0,1-3.51,3.66,115.64,115.64,0,0,1-33.81,20A10,10,0,0,0,569.38,705.23Z"/><path class="cls-26" d="M511,719.67l2.75-1.06q-3,9.79-6,19.6Z"/><path class="cls-30" d="M479.26,853.94c1.43-7.94-3.2-13.3-8.16-18.28-2.63-2.65-2.85-4.91-1.63-8.33,3.23-9.06,3.37-18-2.27-26.49-.69-1,.54-3.34.87-5.06,3.15-1.3,6.23-3.34,9.48-3.65a9.47,9.47,0,0,1,7.22,3c8.28,10.42,16.18,21.14,24,31.88,1.55,2.12,2.34,4.79,3.48,7.21a68.89,68.89,0,0,0-29.53,17.9C481.88,853,480.44,853.34,479.26,853.94Z"/><path class="cls-25" d="M442.74,800.2l6.21-2.61c1.7,2.53,3.36,3.16,4.94-.1l.06.09,4.48.11c7.44,4.32,10.65,10.69,10.29,19.33-.42,9.93-4.76,17.87-11,25.16.77-10.26,1.35-20.5-4.19-29.53C450.7,808,446.39,804.32,442.74,800.2Z"/><path class="cls-21" d="M466,570.87l21.63-4.15c4.21,1.14,8.38,2.47,12.64,3.39,21,4.55,42.05,9,63.07,13.46-.5,5.91.11,12.17-1.68,17.66-8.54,26.27-17.74,52.34-26.7,78.48l-1.16-1-6,2.18,4.08,4.58c-2.36,7.35-5.62,14.76-12.16,20.3-8.89.25-17.78.73-26.67.72-22.06,0-44.12-.34-66.19-.44a120.36,120.36,0,0,0-15.2.58c-5.84.7-9.78-2-13-6.18a71.93,71.93,0,0,1-14.48-33.85c4.49-1.2,4.73-2.25.66-7.36,14.26-16.75,28.26-34.07,43.24-50.5C440.07,595.57,453.3,583.46,466,570.87Z"/><path class="cls-19" d="M466,570.87c-12.7,12.59-25.93,24.7-38,37.89-15,16.43-29,33.75-43.24,50.5,4.07,5.11,3.83,6.16-.66,7.36-.95-10.06-2.41-20.1-2.68-30.18a153.12,153.12,0,0,1,1.72-24.07c1.39-10.59,6.85-19.24,16.73-23.25A301.93,301.93,0,0,1,466,570.87Z"/><path class="cls-36" d="M519.69,705.79c6.54-5.54,9.8-12.95,12.16-20.3l-4.08-4.58,6-2.18,1.16,1c9-26.14,18.16-52.21,26.7-78.48,1.79-5.49,1.18-11.75,1.68-17.66a22.75,22.75,0,0,0-7.46-15.63c-1.84-1.77-3.48-3.73-5.21-5.61,17.37-1.86,30.78,10.18,28.68,27.54-1.39,11.49-5,22.87-8.86,33.87-7.84,22.47-16.36,44.71-24.85,67-6,15.79-18.79,23.84-36,23.32Z"/><path class="cls-36" d="M425.05,575c-6.84,2.38-13.64,4.88-20.53,7.13-15.84,5.17-24.61,16-26.38,32.53-1.83,17.15-2.36,34.28.66,51.36,3.46,19.6,10.95,36.87,28.36,48.39-.16.51-.33,1-.49,1.53l-13-3c-13.89-7.95-22-20.24-26.53-35.24-6.57-21.83-6.3-44-3.14-66.28,1.74-12.29,8.93-20.94,20.71-25,11.6-4,23.44-7.35,35.2-10.88A27.47,27.47,0,0,1,425.05,575Z"/><path class="cls-19" d="M377.76,587c-4.28-3.18-1-5.32,1.41-6.52,17.72-9,36.06-16.32,55.59-20.45,8.78-1.86,17.51-4,26.27-5.93,4.19,2.11,8.9,3.69,9.76,9.31l-17.24,2.88-7.21,1.3-2.12.35C421.48,572.24,399.19,578.12,377.76,587Z"/><path class="cls-32" d="M550.67,562.33c1.73,1.88,3.37,3.84,5.21,5.61a22.75,22.75,0,0,1,7.46,15.63c-21-4.47-42.06-8.91-63.07-13.46-4.26-.92-8.43-2.25-12.64-3.39,18.4-1.53,36.8-3.09,55.21-4.55C545.43,562,548.06,562.27,550.67,562.33Z"/><path class="cls-13" d="M377.76,587c21.43-8.86,43.72-14.74,66.46-19.06-.59.88-1,2.32-1.78,2.54-5.76,1.66-11.59,3.08-17.39,4.57a27.47,27.47,0,0,0-5.17.58c-11.76,3.53-23.6,6.88-35.2,10.88-11.78,4.07-19,12.72-20.71,25-3.16,22.24-3.43,44.45,3.14,66.28,4.52,15,12.64,27.29,26.53,35.24l-8.12,2.19a1.3,1.3,0,0,0-.33.26l1,.71-2.61,1L376.42,716c-.22,5-.41,9.43-.61,13.85l-1.17,0c-.25,0-.51,0-.76,0v-13.5h-8.76l-16.58,2.29c-.1-1.38-.21-2.77-.31-4.16l31.6-.55h8.92c-17.43-13.34-24.74-31.48-27.32-51.71-1.5-11.78-1.17-23.79-1.67-35.7.58-4.84.46-9.89,1.89-14.46,2-6.36,5.16-12.36,7.82-18.52l1.25-1.65.27.17c.76-2.61,1.53-5.23,2.65-9.1l1.2,5.71Z"/><path class="cls-13" d="M446.34,567.57l7.21-1.3C450.26,569,448.15,569.42,446.34,567.57Z"/><path class="cls-3" d="M658.26,506.12H654c-.12-1.61-.81-3.46-.26-4.79a90.27,90.27,0,0,1,5-9.37c2.69-4.77,5.61-5.07,9.64-1.35.84.77,2.41.74,3.64,1.08l2.13,5.21c0,7.5,0,7.37-8.43,7.58C663.22,504.53,660.74,505.54,658.26,506.12Z"/><path class="cls-13" d="M672,491.68c-1.23-.34-2.8-.31-3.64-1.08-4-3.72-7-3.42-9.64,1.35a90.27,90.27,0,0,0-5,9.37c-.55,1.33.14,3.18.26,4.79l-12.4.1c7-3.66,12.35-8.56,15-16.47.61-1.81,5.38-3.39,8-3S669.57,489.92,672,491.68Z"/><path class="cls-13" d="M658.26,506.12c2.48-.58,5-1.59,7.46-1.65,8.42-.21,8.42-.08,8.43-7.58a16.92,16.92,0,0,1,2,3.67c1.26,5,2.53,5.76,7.49,3.87,0,.58,0,1.16.07,1.74Z"/><path class="cls-25" d="M474.76,860.61c-.48-.15-1.25-.15-1.42-.48-3.22-6-6.37-12-9.53-17.94l-1.71.43,3.9-6.76c6.39,5,11.56,9.92,11.08,18.41Q475.93,857.45,474.76,860.61Z"/><path class="cls-5" d="M858,752a36.15,36.15,0,0,1,.58,4.6q0,76.89,0,153.79a44.8,44.8,0,0,1-.6,5.13c-.12-1.22-.34-2.43-.34-3.64q0-77.87,0-155.72C857.64,754.73,857.87,753.35,858,752Z"/><path class="cls-5" d="M858,663.43a19.75,19.75,0,0,1,.64,3.52q.06,39.22,0,78.44a20.88,20.88,0,0,1-.59,3.55l-.6-39.09c.06-13.58.1-27.15.19-40.73C857.59,667.23,857.82,665.33,858,663.43Z"/><path class="cls-5" d="M858,928v0Z"/><path class="cls-5" d="M857.93,618.12c0,3.55,0,7.09,0,10.64C857.92,625.21,857.93,621.67,857.93,618.12Z"/><path class="cls-5" d="M857.93,644.44c0,.41,0,.82,0,1.23C857.94,645.26,857.93,644.85,857.93,644.44Z"/><path class="cls-5" d="M858,611.76v0Z"/><path class="cls-27" d="M359.76,626.58c.5,11.91.17,23.92,1.67,35.7,2.58,20.23,9.89,38.37,27.32,51.71h-8.92a18,18,0,0,0-3.94-.89q-67.42,0-134.84.06c-6.23.83-9.45-4.56-14.08-7-3.42-1.79-6.34-4.56-9.48-6.89l0,.06-3.94-7.88c8.56-.19,17.13-.51,25.69-.53,32.26-.08,61.51-9.49,87.26-28.88,11.61-8.75,21.85-19,29.07-32C356.45,628.64,358.35,627.75,359.76,626.58Z"/><path class="cls-36" d="M217.49,699.3l17.82,15.81c-5.95,1.41-11.62-1.36-17-5-13.43-9.16-20-22.77-23.65-37.94-5-20.42-4.5-41.09-1.43-61.72,1.26-8.51,5.92-15.18,13.2-20.28.64,3.77,1.24,7.29,1.83,10.82a1.76,1.76,0,0,0,.33-.27,3.35,3.35,0,0,0,.29-.44,20.89,20.89,0,0,1,.07,4.6c-.6,2.88-1.56,5.69-2.37,8.52-.8,3.76-1.91,7.49-2.35,11.29-1.93,16.71-3.13,33.47.71,50.07,2.12,9.17,5.22,18,12.56,24.61Z"/><path class="cls-42" d="M193.33,492.59c3.31-.12,6.63-.34,9.94-.34q46.18,0,92.38,0c2.08,0,4.17-.25,6.25-.39-1.25.63-2.5,1.82-3.75,1.83q-50.82.15-101.64,0C195.45,493.74,194.39,493,193.33,492.59Z"/><path class="cls-13" d="M217.54,699.36c-7.34-6.59-10.44-15.44-12.56-24.61-3.84-16.6-2.64-33.36-.71-50.07.44-3.8,1.55-7.53,2.35-11.29-.69,10.28-1.52,20.54-2,30.83-.69,13.93-.06,27.73,5.54,40.81,1,2.23,2.3,4.3,3.47,6.45Z"/><path class="cls-5" d="M372.66,573.94c-.3-2.49-.59-5-.89-7.49,0-1,0-2,0-2.94,4.75,2.54,2.1,6.87,2.53,10.46Z"/><path class="cls-7" d="M203.44,553c-.05-.47-.09-.93-.14-1.4C203.34,552,203.39,552.5,203.44,553Z"/><path class="cls-7" d="M195.4,489.67l-1.08,0Z"/><path class="cls-7" d="M370.72,592l-1.25,1.65Z"/><path class="cls-7" d="M370.41,587.61l-.44-.24.44.24Z"/><path class="cls-27" d="M268.83,831.16c1.58-7.62,3.36-14,9-18.79a14.12,14.12,0,0,1,18.31-.18c9.7,8,10.6,26.59,1.74,35.56-6.79,6.86-17.16,6.47-22.63-1.63C272.27,841.71,270.92,836.18,268.83,831.16Z"/><path class="cls-19" d="M365.12,716.41h8.76v13.5c0,.34.05.69.08,1q0,7.41,0,14.8l0,17.84v50.68q0,16.83,0,33.65l0,16.92v16.83c-.15.71-.31,1.43-.47,2.14l-5,3.91c-.42-2.45-1.2-4.89-1.22-7.35-.12-12.61,0-25.22-.12-37.83,0-1.71-.92-3.41-1.41-5.11l-.6-17-.09-28.29q0-17.75.1-35.47Z"/><path class="cls-25" d="M327.34,874.68q-2.28,7.53-4.57,15.06H312.43V864.85q1.15-8.15,2.3-16.28l5.66-2.16c8.4,6.07,11.4,13.13,8.79,21C328.4,869.78,328,872.26,327.34,874.68Z"/><path class="cls-32" d="M314.73,848.57l-2.3,16.28c-.65,4.88-1.45,9.74-1.89,14.64-.29,3.26-.05,6.57-.05,9.8-4.48,1.39-4.33-1.45-4.13-3.87,1.1-12.7,1.87-25.46,3.6-38.09s3.25-24.72-3.71-36.2c-1.26-2.08-2.72-4-3.45-6.93,1.75,1.33,3.85,2.38,5.18,4,6.12,7.59,8.09,16.48,7.63,26.07-.09,2.06.09,4.14.14,6.22l-.24.19-.33.15.25.23c.15.79.29,1.58.43,2.37Q315.31,846,314.73,848.57Z"/><path class="cls-25" d="M322.71,920.88l-7.92-11.23a30.33,30.33,0,0,0-.55-5.69c-1.64-5.56,1.26-8,6-9.42C317.54,903.66,319.07,912.37,322.71,920.88Z"/><path class="cls-26" d="M306.67,891.78c1.88.6,4,1,4,1.32-.12,3.07-.6,6.13-1,9.19l-2.17,0C307.28,899.08,307,895.9,306.67,891.78Z"/><path class="cls-26" d="M241.05,713.16q67.43-.06,134.84-.06a18,18,0,0,1,3.94.89l-31.6.55-2,0c-24.5-.1-49-.24-73.48-.28-10,0-19.94.2-29.91.3l-1.46-.37Z"/><path class="cls-2" d="M241.38,714.15l1.46.37a4.21,4.21,0,0,0-.09.62l-1.09,1.14-4.09-1Z"/><polygon class="cls-13" points="315.43 841.1 315.18 840.87 315.51 840.72 315.43 841.1"/><path class="cls-35" d="M365.18,756.63q0,17.73-.1,35.47c-2.68-1-5.66-1.57-8-3.12-3.51-2.35-6.56-5.39-9.8-8.14.46-1.29.91-2.59,1.37-3.89,1.23-.69,2.87-1.08,3.64-2.12C356.72,768.84,360.91,762.71,365.18,756.63Z"/><path class="cls-33" d="M365.18,756.63c-4.27,6.08-8.46,12.21-12.86,18.2-.77,1-2.41,1.43-3.64,2.12q-.07-29.12-.14-58.25l16.58-2.29Z"/><path class="cls-13" d="M242.75,715.14a4.21,4.21,0,0,1,.09-.62c10-.1,19.94-.31,29.91-.3,24.49,0,49,.18,73.48.28a3,3,0,0,1-.06.73h-1.09q-50.4.16-100.82.31A6.06,6.06,0,0,1,242.75,715.14Z"/><path class="cls-43" d="M867,752c0-1,0-2,0-3l3.18-.13,9.46,0,4.24,0a44.08,44.08,0,0,1,5.27,0c4.1.52,5.43-1,5.4-5.24,0-8.55.34-17.12,1-25.66.87-11.46,1.73-23,3.37-34.32Q903,655.28,908.14,627c3.52-19.49,7.61-38.88,11.41-58.32.55-2.78.88-5.61,1.31-8.41-28.74,33.59-38.86,74-44.18,116.43a4.42,4.42,0,0,1-1.28-2.23c-2-8.32-3.83-16.66-5.92-24.94-.36-1.46-1.61-2.7-2.45-4,0-33.18.09-66.36-.11-99.54,0-4.61,1.17-5.92,5.86-5.91q89,.24,178.08,0c5,0,6.06,1.55,6.06,6.25q-.18,189.86,0,379.73c0,5.14-1.48,6.39-6.47,6.36q-53.48-.32-107,0c-6.16,0-12.32,1.31-18.48,2-1.16-5.46-4.4-7.6-10.07-7.48-13.59.29-27.2.14-40.8.05a36.5,36.5,0,0,1-6.07-1c0-.33,0-.67,0-1a41.8,41.8,0,0,1,6.12-1c7.9-.12,15.81-.22,23.7,0,3.8.12,6.78-.68,9.23-3.74,7-8.7,15.08-16.67,20.84-26.09,7-11.47,12.16-24.08,17.92-36.29,2.47-5.21,1.44-6.65-4.22-6.67-11.94,0-23.88,0-35.82,0a40.39,40.39,0,0,1-4.5-.47l.15-1.63h5.6c12.29,0,24.58-.06,36.87.06,3,0,5.44-.63,6-3.78,2-11.77,3.8-23.58,5.65-35.39.76-4.89-1.43-6.32-6.25-6.28-24.76.2-49.52.1-74.27.08-1.77,0-3.53-.2-5.29-.31v-1.51c1.78-.1,3.56-.27,5.33-.28,24.76,0,49.52-.16,74.27.11,5.21.06,6.94-1.58,6.22-6.52-1.89-13.08-3.7-26.18-5.56-39.26-.52-3.66-3-3.94-6.13-3.93C918.29,752.07,892.65,752,867,752Zm57-13.67c-.61,2.28-1.23,4.57-1.82,6.86-.29,1.12-.51,2.27-.77,3.4,1.08.19,2.15.44,3.24.56,6.77.79,10.88-2.72,15-7.8,8.93-11,14.13-23.2,15-37.64a196,196,0,0,0-18.45,18.81c-4.34,5-8.16,10.53-12.21,15.82,3.07-5.55,5.6-11.51,9.36-16.55,4.93-6.6,10.85-12.47,16.88-19.26-11.84.56-19.21,8.47-28.29,15.2,13.13-33.32,14-133.52,1.36-156.78-1.55,7.91-2.92,15-4.33,22.1-2.53,12.64-5.47,25.21-7.54,37.92-3.53,21.82-6.93,43.67-9.62,65.6-2.3,18.83-3.51,37.8-5.23,56.71-.36,3.94,1,6,5.28,5.65,3.14-.25,6.32,0,9.48-.06,1.85-.1,4.69.49,5.37-.46,1.61-2.25,2.19-5.23,3.18-7.91Z"/><path class="cls-22" d="M867,752c25.63,0,51.27.07,76.9,0,3.14,0,5.61.27,6.13,3.93,1.86,13.08,3.67,26.18,5.56,39.26.72,4.94-1,6.58-6.22,6.52-24.75-.27-49.51-.12-74.27-.11-1.77,0-3.55.18-5.33.28v1.51c1.76.11,3.52.3,5.29.31,24.75,0,49.51.12,74.27-.08,4.82,0,7,1.39,6.25,6.28-1.85,11.81-3.66,23.62-5.65,35.39-.54,3.15-3,3.81-6,3.78-12.29-.12-24.58-.06-36.87-.06h-5.6l-.15,1.63a40.39,40.39,0,0,0,4.5.47c11.94,0,23.88,0,35.82,0,5.66,0,6.69,1.46,4.22,6.67C940.12,870,935,882.62,928,894.09c-5.76,9.42-13.88,17.39-20.84,26.09-2.45,3.06-5.43,3.86-9.23,3.74-7.89-.25-15.8-.15-23.7,0a41.8,41.8,0,0,0-6.12,1,37,37,0,0,1-1-6.1q-.09-43.34,0-86.68h20.59c0-.66,0-1.32,0-2-6.67-2.45-13.75-.6-20.6-1.11Z"/><path class="cls-23" d="M867,645.51c.84,1.34,2.09,2.58,2.45,4,2.09,8.28,4,16.62,5.92,24.94a4.42,4.42,0,0,0,1.28,2.23c5.32-42.39,15.44-82.84,44.18-116.43-.43,2.8-.76,5.63-1.31,8.41-3.8,19.44-7.89,38.83-11.41,58.32q-5.1,28.25-9.22,56.67c-1.64,11.37-2.5,22.86-3.37,34.32-.65,8.54-1,17.11-1,25.66,0,4.24-1.3,5.76-5.4,5.24a44.08,44.08,0,0,0-5.27,0c0-13,.58-25.94-.23-38.85-.62-10-3-19.93-4.56-29.89l-2.64.25c3.77,22.77,3.42,45.64,3.19,68.51l-9.46,0Q868.6,740.43,867,732,867,688.74,867,645.51Z"/><path class="cls-44" d="M868.08,925.92a36.5,36.5,0,0,0,6.07,1c13.6.09,27.21.24,40.8-.05,5.67-.12,8.91,2,10.07,7.48H867.39c-.14-2.69-.25-5-.37-7.39l1-1Z"/><path class="cls-7" d="M867,829c6.85.51,13.93-1.34,20.6,1.11,0,.66,0,1.32,0,2H867C867,831.1,867,830.07,867,829Z"/><path class="cls-27" d="M867,732q1.59,8.44,3.17,16.88L867,749q-1.07-5.36-2.12-10.72v-8.35Z"/><path class="cls-43" d="M868.06,926l-1,1Z"/><path class="cls-5" d="M864.55,932.37l0-1.25Z"/><path class="cls-5" d="M864.5,662.55c0-.43,0-.85,0-1.27C864.48,661.7,864.49,662.12,864.5,662.55Z"/><path class="cls-5" d="M864.48,543.44c0-.42,0-.84,0-1.26C864.49,542.6,864.48,543,864.48,543.44Z"/><path class="cls-5" d="M864.53,746.87v0Z"/><path class="cls-15" d="M375.81,729.87c.2-4.42.39-8.84.61-13.85l7.18,1.13q-1.41,2.67-2.81,5.34a.62.62,0,0,0-.26.58l-.66,1.46c-.48,1.78-1,3.57-1.45,5.35a11.42,11.42,0,0,0-.59,2.51q0,56.76.11,113.52l.54,2.21L378.36,889l-1.64.09L376,888l0-39.94,0-21.34c0-1.31,0-2.63,0-4l0-14.95V764.75q0-9.06,0-18.12Z"/><path class="cls-16" d="M453.89,797.49c-1.58,3.26-3.24,2.63-4.94.1Z"/><path class="cls-16" d="M380.53,723.07a.62.62,0,0,1,.26-.58l2,1-.52.83Z"/><path class="cls-36" d="M377.94,845.91q-.06-56.76-.11-113.52a11.42,11.42,0,0,1,.59-2.51c.15,2.09.42,4.17.42,6.25q0,52.29-.11,104.56c0,1.75.12,3.5.19,5.24l-.06-.06A2,2,0,0,0,377.94,845.91Z"/><path class="cls-27" d="M409.21,829.63c2.07-4.87,3.29-10.37,6.39-14.46,6.33-8.38,15.48-8.35,23-.88,7.83,7.79,7.43,26.2-.73,33.66-9.23,8.45-22.53,4.19-26.17-8.5a83.46,83.46,0,0,1-1.58-9.25Z"/><path class="cls-15" d="M409.53,900.64c-.26,1.46-.53,2.92-.8,4.37C406.79,903.15,406.29,901.55,409.53,900.64Z"/><path class="cls-25" d="M324.88,923.87c-.72-1-1.44-2-2.15-3C323.44,921.9,324.16,922.88,324.88,923.87Z"/><path class="cls-2" d="M374,847.91q0-16.83,0-33.65Q374,831.09,374,847.91Z"/><path class="cls-28" d="M376.06,826.72l0,21.34Q376,837.4,376.06,826.72Z"/><path class="cls-2" d="M374,763.58l0-17.84Z"/><path class="cls-28" d="M376.05,746.63q0,9.06,0,18.12Q376,755.69,376.05,746.63Z"/><path class="cls-28" d="M376,807.82l0,14.95Q376,815.3,376,807.82Z"/><path class="cls-2" d="M374,730.94c0-.34,0-.69-.08-1,.25,0,.51,0,.76,0Z"/><path class="cls-2" d="M374,881.66c0-.34,0-.68,0-1a3.9,3.9,0,0,1,.31.73C374.28,881.44,374.07,881.56,374,881.66Z"/><path class="cls-2" d="M374,865.86v-1a3.6,3.6,0,0,1,.32.73C374.29,865.63,374.07,865.76,374,865.86Z"/><path class="cls-2" d="M324,931.27l-2.13-2.13Z"/><path class="cls-2" d="M327.17,933.39l-3.2-2.13Z"/><path class="cls-2" d="M321.88,929.16l-1.09-1.1Z"/><path class="cls-28" d="M377.94,845.91a2,2,0,0,1,.92,0c-.13.75-.25,1.5-.38,2.25Z"/><path class="cls-13" d="M202.76,512h0Z"/><path class="cls-13" d="M211.18,512h0Z"/><path class="cls-13" d="M309.21,512l1.09.8Z"/><path class="cls-13" d="M781,321.57l-3.69-4.3c.41-3.54,6.65-5,3.36-9.45-2-2.67-4.39-5-6.61-7.49l-1.52.88c.25-3,.5-6.08.74-9,10.63-2.36,12.44-5.83,7.82-15.26,2.19-2,4.47-4,7-6.3l3.55,3.36-.82.83c-4.25-3.44-5.42.95-6.75,2.87a23,23,0,0,1,.18,9.39c-.84,3.41-2.63,6.23-7.13,6.14-.91,0-2.35,2.79-2.73,4.48-.75,3.31,1.77,3.12,4,3l3.75,5.49c2.84,4.43,0,7.5-2.88,10.42l2.67,4Z"/><path class="cls-11" d="M785.65,385.27c-3.76-5.09-.68-14.42,5.15-14.39,6,0,6.92-2.95,6.4-7.72a3.68,3.68,0,0,1,.44-.86c1.25,1.26,3.56,2.57,3.52,3.78-.1,2.52-1.41,7.13-2.29,7.15C790.66,373.39,788.57,379.69,785.65,385.27Z"/><path class="cls-14" d="M822.71,325.93l-3.33-1c-4.2-4-10.82-2.8-11.93,2.59-.75,3.68-2.68,4.38-5.75,4.22s-5.53-.63-5.31-4.85c.07-1.39-2-2.9-3.11-4.36L785.79,321c3.44-3.2,11.09-.85,12.65,3.48.84,2.32,3,4.17,4.82,6.61,3.31-3.81,2.14-8.32,7.48-9.6,4.57-1.09,7.54-1.19,10.25,2.63l3.77-2.21a5.65,5.65,0,0,0,.65.73Z"/><path class="cls-13" d="M791.67,274c4.11,2.83,9.23-.23,9.57-2.26,1.31-7.83,5.87-6.57,10.93-5.44,3.08,10.71,5.65,12,14.42,7,1,1.23,2.15,2.53,3.24,3.83l-.94.75c-3.39-4.61-5.63-.06-8.31,1-3.34-2.68-10-1.72-9.52-8.59.06-5.86-4.17-1.88-6.94-3.63.69,6.57-3.08,8.52-7.82,9.6a8.47,8.47,0,0,0-2.2,1.27l-2.38-1-.87-1.79Z"/><path class="cls-11" d="M837,299.84c1.14,1.09,3.31,2.27,3.22,3.25-.18,2-1.5,5.46-2.5,5.52-7.56.39-7.87,6.14-9.13,11.3-1.19-1.81-2.37-3.63-3.56-5.45,1.33-6,4.8-9.56,11-9.36C836.43,302.91,836.7,301.38,837,299.84Z"/><path class="cls-11" d="M801.7,331.72c3.07.16,5-.54,5.75-4.22,1.11-5.39,7.73-6.62,11.93-2.59-3.87,2.31-9,3.24-9.59,9.16,0,.45-2.37,1.16-3.44.91C804.49,334.55,801.3,335.5,801.7,331.72Z"/><path class="cls-14" d="M837,299.84c-.28,1.54-.55,3.07-.94,5.26-6.23-.2-9.7,3.39-11,9.36l-.86.82c-1-5.5,3.06-10.18,10.23-11.87,1.79-4,1-6.37-3.83-7.09-3.23-.49-4.89-9.52-2.51-12.32.81,3.7-.63,8.29,4.15,10.39C835.1,295.06,837.69,296,837,299.84Z"/><path class="cls-11" d="M791.87,340l4,3.41c-4.68,3.71-6.57,8-5,13.38-4.24-2.91-5-9.05-1.85-14.81l0,0,1.1-1.1L790,341Z"/><path class="cls-13" d="M789,342c-3.16,5.76-2.39,11.9,1.85,14.81,2.17,1.93,7.85-.46,6.77,5.49a3.68,3.68,0,0,0-.44.86h-1.34c-.82-.81-1.52-2.12-2.47-2.35-5.91-1.41-6.65-6.28-8.16-11C783.86,345.58,785.09,343.32,789,342Z"/><path class="cls-11" d="M778.56,396l8.61-7.74c3.76,2.38,3.05,4.64.2,7.42C784.34,398.63,781.68,400.55,778.56,396Z"/><path class="cls-11" d="M832.19,294.39c-4.78-2.1-3.34-6.69-4.15-10.39l-.06.07,3.76-2.95a2.36,2.36,0,0,1,.65-.21c3,1.64,4.09,3.82,1.14,6.3C830.93,289.38,831,291.69,832.19,294.39Z"/><path class="cls-11" d="M822.71,325.93l2.7-3.32,3.17-1.74c.82,1,2.52,2.66,2.32,2.93a24.44,24.44,0,0,1-4.92,5C825.75,329,823.84,327,822.71,325.93Z"/><path class="cls-11" d="M785.79,321l7.49,1.54-6.3,4.93-2.32-4.08c.07-.31.16-.62.26-.92l1-1.54Z"/><path class="cls-13" d="M791.87,340,790,341l-2-3.23-1.41-2.92.86-.85Z"/><path class="cls-14" d="M828.58,320.87l-3.17,1.74a5.65,5.65,0,0,1-.65-.73c2.57-2.46.38-4.47-.61-6.6l.86-.82c1.19,1.82,2.37,3.64,3.56,5.45A2.58,2.58,0,0,1,828.58,320.87Z"/><path class="cls-13" d="M832.39,280.91a2.36,2.36,0,0,0-.65.21l-1.57-.86-1.28-2.38.94-.75Z"/><path class="cls-13" d="M783.24,331.93l4.29,2.06-.86.85-2.74-2Z"/><path class="cls-13" d="M784.92,322.44c-.1.3-.19.61-.26.92L781,321.57l.91-.95,2.78-.07a.7.7,0,0,0,0,.55Z"/><path class="cls-13" d="M780,334l3.25-2.05.69.89-3.13,2.08Z"/><path class="cls-14" d="M764.87,348.05c-2.13-.55-4.3-1-6.36-1.72-.56-.2-.77-1.37-1.14-2.1,8.13.09,13.57,4.15,16.84,11.42,0,.39-.05.78-.08,1.17l-1.14.06Z"/><path class="cls-19" d="M780.8,334.9l3.13-2.08,2.74,2,1.41,2.92c-2.34.76-4.66,2-7,2.12-1.53.08-3.14-1.46-4.72-2.27Z"/><path class="cls-18" d="M774.13,356.82c0-.39.06-.78.08-1.17.35.74.69,1.48,1,2.22l-.52.41Z"/><path class="cls-13" d="M790.09,340.94,789,342Z"/><path class="cls-19" d="M666.57,308.71a27.09,27.09,0,0,1-4.06.61q-50.12.06-100.24,0a25.8,25.8,0,0,1-4-.63c22.79-.09,45.59-.23,68.38-.25C639.92,308.43,653.25,308.61,666.57,308.71Z"/><path class="cls-21" d="M544.41,320.9h-1.1l-3.13-2.31.23-1.09h142.4c0,.34.08.69.11,1-1.92.1-3.85.29-5.77.29-40.9,0-81.8,0-122.69.1C551.1,318.93,547.76,320.21,544.41,320.9Z"/><path class="cls-13" d="M774.13,356.82l.59,1.46c.55,5.77-.63,11.07-4.72,15.33-1,1.08-2.81,1.46-4.25,2.16,5.75-5,8.58-11.15,7.24-18.89Z"/><path class="cls-25" d="M617.91,295.61c-12.3,0-24.6.08-36.89-.1-1.65,0-3.28-1.39-4.91-2.13,1.55-.69,3.1-2,4.65-2q37.43-.18,74.85,0c1.56,0,3.11,1.29,4.66,2-1.64.75-3.28,2.12-4.93,2.15-12.47.18-25,.1-37.43.1Z"/><path class="cls-21" d="M691.69,343.71c-1.63.14-3.26.4-4.89.4q-37.06,0-74.12,0c-.7,0-1.54.23-2.07-.07a21.16,21.16,0,0,1-2.82-2.22c.87-.63,1.68-1.65,2.63-1.82a29.5,29.5,0,0,1,5.24-.11c23.13,0,46.26-.05,69.39,0,2.32,0,4.64.91,7,1.39C691.9,342.14,691.79,342.93,691.69,343.71Z"/><path class="cls-13" d="M372.66,573.94l1.6,0c-.2.41-.4.82-.59,1.23Z"/><path class="cls-13" d="M373.27,580.05l-.61-.35c.1-.11.23-.33.31-.31a2.83,2.83,0,0,1,.63.31Z"/><path class="cls-23" d="M911.31,748.87c-3.16,0-6.34-.19-9.48.06-4.31.33-5.64-1.71-5.28-5.65,1.72-18.91,2.93-37.88,5.23-56.71,2.69-21.93,6.09-43.78,9.62-65.6,2.07-12.71,5-25.28,7.54-37.92,1.41-7.09,2.78-14.19,4.33-22.1,12.67,23.26,11.77,123.46-1.36,156.78,9.08-6.73,16.45-14.64,28.29-15.2-6,6.79-12,12.66-16.88,19.26-3.76,5-6.29,11-9.36,16.55h0l-4.11,2.17c.88-6.47,4.42-12.65,2.11-21C918.09,730.2,914.7,739.54,911.31,748.87Z"/><path class="cls-24" d="M924,738.34c4-5.29,7.87-10.78,12.21-15.82a196,196,0,0,1,18.45-18.81c-.85,14.44-6,26.65-15,37.64-4.14,5.08-8.25,8.59-15,7.8-1.09-.12-2.16-.37-3.24-.56.26-1.13.48-2.28.77-3.4.59-2.29,1.21-4.58,1.82-6.86Z"/><path class="cls-27" d="M879.65,748.89c.23-22.87.58-45.74-3.19-68.51l2.64-.25c1.58,10,3.94,19.87,4.56,29.89.81,12.91.22,25.9.23,38.85Z"/><path class="cls-27" d="M911.31,748.87c3.39-9.33,6.78-18.67,10.66-29.38,2.31,8.36-1.23,14.54-2.11,21-1,2.68-1.57,5.66-3.18,7.91C916,749.36,913.16,748.77,911.31,748.87Z"/><path class="cls-11" d="M824.15,315.28c1,2.13,3.18,4.14.61,6.6L821,324.09c-2.71-3.82-5.68-3.72-10.25-2.63-5.34,1.28-4.17,5.79-7.48,9.6-1.84-2.44-4-4.29-4.82-6.61-1.56-4.33-9.21-6.68-12.65-3.48l.08-.07-1.13.2a.7.7,0,0,1,0-.55c.21-1.26.45-2.52.61-3.79.49-4,1.41-8.11-3.18-10.57l-3.75-5.49c-.31-2.79,1-3.82,3.72-4.41,4.59-1,8.33-7.42,6.24-11.15-2.63-4.73-.07-6.62,3.37-8.53l2.38,1c5.51,3.78,10.6,2.08,13.12-4,.56-1.37,2.52-2.16,3.84-3.21-.45,6.87,6.18,5.91,9.52,8.59,1.75,5.37,6,.81,8.79,2.24L828,284.07,828,284c-2.38,2.8-.72,11.83,2.51,12.32,4.86.72,5.62,3.07,3.83,7.09C827.21,305.1,823.18,309.78,824.15,315.28Zm-30.87-10.23c.1.7.21,1.39.31,2.09l7,5.36c1.42.72,2.8,1.94,4.28,2.07,8.67.78,12.8-2.42,15.47-11.62.05-1,.1-2.05.14-3.07l-2-4.33c-.35-1-.69-2-1-3.06l.26-.43-.29.4-2.06-1.13c-.32-5.26-4.47-6-8.31-6.77-4.37-.88-7.84.66-9.57,3.77l0,0c-6.27,1.92-8.6,11.27-4.19,16.76Z"/><path class="cls-19" d="M791.72,276.61c-3.44,1.91-6,3.8-3.37,8.53,2.09,3.73-1.65,10.16-6.24,11.15-2.72.59-4,1.62-3.72,4.41-2.2.12-4.72.31-4-3,.38-1.69,1.82-4.5,2.73-4.48,4.5.09,6.29-2.73,7.13-6.14a23,23,0,0,0-.18-9.39c1.33-1.92,2.5-6.31,6.75-2.87Z"/><path class="cls-32" d="M782.14,306.19c4.59,2.46,3.67,6.59,3.18,10.57-.16,1.27-.4,2.53-.61,3.79l-2.78.07-2.67-4C782.18,313.69,785,310.62,782.14,306.19Z"/><path class="cls-32" d="M811.06,270.33c-1.32,1.05-3.28,1.84-3.84,3.21-2.52,6.11-7.61,7.81-13.12,4a8.47,8.47,0,0,1,2.2-1.27c4.74-1.08,8.51-3,7.82-9.6C806.89,268.45,811.12,264.47,811.06,270.33Z"/><path class="cls-18" d="M829.37,281.16c-2.75-1.43-7,3.13-8.79-2.24,2.68-1.1,4.92-5.65,8.31-1l1.28,2.38Z"/><path class="cls-14" d="M829.37,281.16l.8-.9,1.57.86L828,284.07C828.45,283.1,828.91,282.13,829.37,281.16Z"/><path class="cls-14" d="M784.74,321.1l1.13-.2-1,1.54Z"/><path class="cls-32" d="M820.53,299.88c0,1-.09,2.05-.14,3.07l-2.56.09c-.17-.28-.41-.8-.5-.78a2.1,2.1,0,0,0-1.1.61c-7.46,10.08-14.18,11-21.77,3.07l-1.18-.89,0,.06c-.67-6.1-.22-11.93,4.19-16.76l0,0c6.62-3,12.75-3,17.88,3l2.06,1.13,0,0c.34,1,.68,2,1,3.07Z"/><path class="cls-18" d="M817.83,303l2.56-.09c-2.67,9.2-6.8,12.4-15.47,11.62-1.48-.13-2.86-1.35-4.28-2.07C808.64,313.47,814.51,310.56,817.83,303Z"/><path class="cls-13" d="M817.83,303c-3.32,7.52-9.19,10.43-17.19,9.46l-7-5.36.87-1.2c7.59,8,14.31,7,21.77-3.07a2.1,2.1,0,0,1,1.1-.61C817.42,302.24,817.66,302.76,817.83,303Z"/><path class="cls-14" d="M815.4,291.33c-5.13-6-11.26-6-17.88-3,1.73-3.11,5.2-4.65,9.57-3.77C810.93,285.34,815.08,286.07,815.4,291.33Z"/><path class="cls-14" d="M797.5,288.35c-4.41,4.83-4.86,10.66-4.19,16.76C788.9,299.62,791.23,290.27,797.5,288.35Z"/><path class="cls-18" d="M820.53,299.88l-2-4.32Z"/><path class="cls-14" d="M794.46,305.94l-.87,1.2c-.1-.7-.21-1.39-.31-2.09Z"/><path class="cls-32" d="M817.46,292.46l.29-.4-.26.43Z"/><path class="cls-1" d="M407.46,232a41.75,41.75,0,0,1,34,.81c1.73.83,3.26-1.75,1.52-2.59a44.69,44.69,0,0,0-36.27-1.12,1.57,1.57,0,0,0-1.05,1.85,1.51,1.51,0,0,0,1.85,1.05Z"/><path class="cls-1" d="M729.11,625.37q-.69,45.69,2.65,91.34.94,12.87,2.22,25.73c.15,1.55,2.58,2.19,2.94.4,3.43-17,6.69-34,10.29-50.93.7-3.27,1.64-7.09,4.81-8.81l-1.82-.24a54.87,54.87,0,0,1,9.2,13.75c.82,1.74,3.41.22,2.59-1.51a57.65,57.65,0,0,0-9.66-14.36,1.53,1.53,0,0,0-1.82-.23c-2.93,1.58-4.51,4.55-5.45,7.63-1.17,3.88-1.76,8-2.56,12l-5.42,26.82L734,742l3,.4Q732.5,697,732,651.2q-.13-12.91.07-25.83c0-1.93-3-1.93-3,0Z"/><path class="cls-1" d="M728.66,669.79A170.26,170.26,0,0,1,724,707.68c-.45,1.88,2.45,2.68,2.89.8a173.92,173.92,0,0,0,4.73-38.69,1.5,1.5,0,0,0-3,0Z"/><path class="cls-1" d="M92.83,421.59a1.5,1.5,0,0,0,0-3,1.5,1.5,0,0,0,0,3Z"/><path class="cls-1" d="M731.67,573.28a1047.5,1047.5,0,0,1-6,105.65q-1.62,15-3.67,30c-.26,1.88,2.59,2.72,2.89.8q7.23-46.19,17.15-91.89,2.84-13.07,5.89-26.06l-2.89-.8q-6.25,37.47-8.88,75.43Q735.44,677.16,735,688l2.94-.4-3.6-11.46c-.49-1.55-3-1.35-3,.4a587.44,587.44,0,0,1-.57,68q-.65,9.72-1.62,19.43l2.94-.4a119.08,119.08,0,0,1,8.3-65.77l-2.8-.76a336.41,336.41,0,0,1,.6,76.12l1.1-1.44c-4.27,1.06-7.88-1.53-10.53-4.64-3.17-3.71-5-8.26-6.78-12.75a177,177,0,0,1-11.72-52.9h-3q2.63,38.13,2.27,76.4-.36,38.07-3.7,76-1.89,21.42-4.71,42.74l1.9-1.44c-4.4-1.32-5.28-6-5.1-10,.24-5.5,2.41-10.47,4.46-15.48l17.13-41.85,34.62-84.59,19.46-47.53-2.95-.4a774.43,774.43,0,0,1-5,93q-1.32,11.54-3,23c-.51,3.48-.94,7-1.64,10.45-.52,2.6-1.29,5.51-3.38,7.31-5.14,4.43-12.47-1.22-16.24-4.83a49.18,49.18,0,0,1-9.85-13.71c-6-12-8.13-25.46-10.08-38.54-.28-1.9-3.18-1.09-2.89.8,1.84,12.31,4,24.77,9,36.25a55.28,55.28,0,0,0,9.75,15.31c4,4.33,9.21,8.79,15.34,9.22,6.7.48,10.1-5.22,11.27-11,1.51-7.53,2.35-15.25,3.34-22.87q3.16-24.36,4.77-48.89,1.82-27.71,1.64-55.49c0-1.8-2.34-1.88-3-.4Q752.89,738.54,735,782.17L699.3,869.46c-2.3,5.6-4.56,11.25-4.34,17.43.17,5,2.26,9.65,7.31,11.16a1.52,1.52,0,0,0,1.9-1.45q5-37.89,7.07-76.11,2-38,1.09-76.11-.54-21.5-2-43c-.13-1.92-3.13-1.93-3,0a182,182,0,0,0,6.3,37.14,178.31,178.31,0,0,0,6,17.68c1.89,4.76,4,9.42,7.41,13.3s8,6.34,13.15,5.06a1.55,1.55,0,0,0,1.1-1.45,336.41,336.41,0,0,0-.6-76.12c-.15-1.26-2.12-2.3-2.79-.76a122.7,122.7,0,0,0-8.6,68.08c.29,1.8,2.79,1.15,3-.39A589.22,589.22,0,0,0,735,696q-.16-9.75-.65-19.49l-2.95.4,3.61,11.46a1.51,1.51,0,0,0,3-.4c1-25.14,3.25-50.24,6.72-75.16q1.47-10.53,3.22-21c.31-1.87-2.44-2.71-2.89-.8q-10.68,45.51-18.69,91.6-2.29,13.16-4.35,26.35l2.89.8a1048.39,1048.39,0,0,0,9.16-106.47q.53-15,.61-30a1.5,1.5,0,0,0-3,0Z"/><path class="cls-45" d="M869,162.32l41.13-41.12-6.68-6.54L869,149.1l-17.43-17.44-6.54,6.54ZM877.62,194a56.31,56.31,0,0,1-22.53-4.58,58.55,58.55,0,0,1-31-31,58,58,0,0,1,0-45.2,58.05,58.05,0,0,1,12.5-18.45,59.59,59.59,0,0,1,18.52-12.43,58,58,0,0,1,45.2,0,58.13,58.13,0,0,1,30.88,30.88,58,58,0,0,1,0,45.2,59.46,59.46,0,0,1-12.43,18.53,58.19,58.19,0,0,1-18.45,12.49A56.63,56.63,0,0,1,877.62,194Zm0-8.72A49.25,49.25,0,0,0,927,135.87a49.41,49.41,0,1,0-98.82,0,49.37,49.37,0,0,0,49.41,49.41Z"/><path class="cls-46" d="M968.72,318.74a31.61,31.61,0,0,1-23.07-9.37,32.07,32.07,0,0,1-1.7-43.75,31.6,31.6,0,0,1,19.53-10.75q2.31-12.81,12.65-22.64t23.47-9.83a10.6,10.6,0,0,1,6.48,2.06,6.53,6.53,0,0,1,2.78,5.56v45l12.65-12.57,6.56,6.51-23.78,23.63L980.51,269l6.55-6.51,12.65,12.57V231.31Q986.6,233,979.14,242.74a34.07,34.07,0,0,0-7.47,21.12h-2.49a22.92,22.92,0,0,0-14.34,4.74,22.09,22.09,0,0,0-8.63,18.13,21.61,21.61,0,0,0,6.86,16.36,22.7,22.7,0,0,0,16.16,6.51h76.7a16.88,16.88,0,0,0,16.83-19.69,14.39,14.39,0,0,0-2.83-6.73q-5.48-7.12-13.86-7.12h-9.77V263.14a31.65,31.65,0,0,0-5.11-18.08A37.72,37.72,0,0,0,1018,233V223.5a39.6,39.6,0,0,1,20,15.57,43.14,43.14,0,0,1,7.48,24.66v3.49a25.27,25.27,0,0,1,18.83,7Q1072,281.55,1072,293a24.61,24.61,0,0,1-7.72,18.14,25.24,25.24,0,0,1-18.37,7.62Z"/><path d="M83.25,220V209.59H105.8a8.59,8.59,0,0,0,8.67-8.67V183.58a18.22,18.22,0,0,1,3-10.17,20.06,20.06,0,0,1,10.89-8.22v-1.38a19.33,19.33,0,0,1-11.81-9.67,17.6,17.6,0,0,1-2.06-8.61V128.08a8.59,8.59,0,0,0-8.67-8.67H83.25V109H105a19.63,19.63,0,0,1,14.11,5.55,18,18,0,0,1,5.8,13.53v17.34a8.57,8.57,0,0,0,8.67,8.67h5.2v20.82h-5.2a8.57,8.57,0,0,0-8.67,8.67v17.34a18,18,0,0,1-5.8,13.53A19.63,19.63,0,0,1,105,220Zm-49.47,0a19.63,19.63,0,0,1-14.11-5.55,18,18,0,0,1-5.79-13.53V183.58a8.37,8.37,0,0,0-2.52-6.16,8.37,8.37,0,0,0-6.16-2.51H0V154.09H5.2a8.37,8.37,0,0,0,6.16-2.51,8.37,8.37,0,0,0,2.52-6.16V128.08a18,18,0,0,1,5.79-13.53A19.63,19.63,0,0,1,33.78,109H55.5v10.41H33a8.59,8.59,0,0,0-8.67,8.67v17.45a17.6,17.6,0,0,1-2.06,8.61,19.33,19.33,0,0,1-11.81,9.67v1.38a20.06,20.06,0,0,1,10.89,8.22,18.22,18.22,0,0,1,3,10.17v17.34A8.59,8.59,0,0,0,33,209.59H55.5V220Z"/><path class="cls-47" d="M1105.42,463.85A10.7,10.7,0,0,1,1095,453.42V363.07a10.68,10.68,0,0,1,10.42-10.42h75.41a40.19,40.19,0,0,0-.69,5.21,26,26,0,0,0,.17,5.21h-74L1164.5,401l26.24-17a34.51,34.51,0,0,0,3.64,2.87,34,34,0,0,0,4,2.34l-33.88,22.24-59.08-38.74v80.79h118.16V390.87a24.34,24.34,0,0,0,5.47-2.35,43.86,43.86,0,0,0,5-3.38v68.28a10.7,10.7,0,0,1-10.42,10.43Zm0-102.16v0Zm107.09,15.64a19,19,0,1,1,13.56-5.56A18.48,18.48,0,0,1,1212.51,377.33Z"/><path class="cls-48" d="M1165,127.7l11.3-11.3-23.89-23.9,23.64-23.64-11.31-11.3L1129.84,92.5Zm51.9,0,35.2-35.2-35.2-35.2-11.31,11.3,23.9,23.9-23.9,23.9ZM1116.42,185A15.83,15.83,0,0,1,1101,169.58V15.42a14.76,14.76,0,0,1,4.63-10.79A14.76,14.76,0,0,1,1116.42,0h154.16a14.76,14.76,0,0,1,10.79,4.63A14.76,14.76,0,0,1,1286,15.42V169.58A15.83,15.83,0,0,1,1270.58,185Zm0-15.42h154.16V15.42H1116.42Zm0-154.16v0Z"/></svg>